<?xml version="1.0" encoding="utf-8"?>
<!-- Generator: Adobe Illustrator 22.0.1, SVG Export Plug-In . SVG Version: 6.00 Build 0)  -->
<svg version="1.1" id="Слой_1" xmlns="http://www.w3.org/2000/svg" xmlns:xlink="http://www.w3.org/1999/xlink" x="0px" y="0px"
	 viewBox="0 0 39.4 25.6" style="enable-background:new 0 0 39.4 25.6;" xml:space="preserve">
<g>
	<path d="M1.6,9.6C1.8,9,2,8.4,2.4,7.9c0.9-1,2-1.4,3.3-1.2h0.1c0,0,0,0,0.1,0C6,5.9,6.3,5.1,6.8,4.5c0.9-1.3,2.2-2,3.7-2
		c4.8,0,9.5,0,14.3,0c1.3,0,2.6,0,3.9,0c2.6,0,4.5,1.5,4.9,4.1c0,0,0,0.1,0,0c0.6,0.1,1.2,0,1.8,0.2c1.3,0.3,2.1,1.3,2.5,2.6
		c0,0.1,0,0.2,0.1,0.2c0,0.3,0,0.6,0,0.9c-0.2,0.7-0.4,1.4-1,2c-0.5,0.4-1,0.7-1.5,0.8c-0.2,0.1-0.3,0.2-0.3,0.4c0,1.7,0,3.4,0,5
		c0,0.9-0.3,1.7-1.2,2.1c0.3,0.6,0.1,1.1-0.3,1.6c-0.1,0.1-0.1,0.3-0.1,0.4c0,0.9,0,0.9-0.9,0.9c-0.3,0-0.6,0-0.9,0
		c-0.3,0-0.5-0.1-0.5-0.5s0-0.8-0.4-1.1c-0.3-0.3-0.3-0.7-0.1-1.1c-7.4,0-14.7,0-22.1,0c0.2,0.6,0,1-0.4,1.4
		c-0.1,0.1-0.1,0.4-0.1,0.6c0,0.6-0.1,0.7-0.7,0.7c-0.4,0-0.8,0-1.1,0c-0.3,0-0.5-0.1-0.5-0.5s0-0.8-0.4-1.1
		c-0.3-0.3-0.3-0.6-0.1-1.2c-0.1-0.1-0.3-0.2-0.4-0.3c-0.5-0.4-0.7-0.9-0.7-1.6c0-1.8,0-3.5,0-5.3c0-0.2,0-0.3-0.3-0.4
		c-1.3-0.4-2.1-1.3-2.4-2.6c0-0.1,0-0.2-0.1-0.2C1.6,10.2,1.6,9.9,1.6,9.6z M8.5,13.5c0.5-0.1,1-0.2,1.4-0.3
		c2.2-0.4,4.4-0.4,6.5-0.2c1.1,0.1,2.2,0.2,3.2,0.7c0.1,0,0.1,0,0.2,0c0.9-0.4,1.9-0.6,3-0.7c2.2-0.2,4.4-0.2,6.6,0.1
		c0.5,0.1,1,0.2,1.6,0.3c0-0.1,0-0.3,0-0.4c0-1,0-2.1,0-3.1c0-1.1,0.5-2,1.4-2.6c0.4-0.3,0.5-0.6,0.4-1c0-0.1,0-0.1,0-0.2
		c-0.5-1.8-2.1-3-4-3c-3.7,0-7.4,0-11.1,0c-2.3,0-4.6,0-6.9,0c-2.1,0-3.7,1.3-4.1,3.4C6.6,6.8,6.7,7,7,7.2c0.4,0.3,0.8,0.7,1.1,1.2
		c0.3,0.5,0.4,1.2,0.4,1.9C8.5,11.3,8.5,12.4,8.5,13.5z M34.5,13.6c-0.5-0.1-1-0.3-1.5-0.4c-0.2-0.1-0.5-0.2-0.3-0.5
		c0.1-0.3,0.4-0.3,0.6-0.1c0.5,0.2,1,0.3,1.6,0.2c1.4-0.2,2.5-1.5,2.3-3.1c-0.2-1.4-1.5-2.4-2.9-2.3c-1.5,0.1-2.5,1.3-2.5,2.8
		c0,1.9,0,3.7,0,5.6c0,1-0.4,1.4-1.3,1.4c-7.1,0-14.2,0-21.3,0c-0.9,0-1.3-0.4-1.3-1.3c0-1.8,0-3.7,0-5.5c0-0.6-0.1-1.1-0.4-1.6
		c-0.6-1.1-2-1.6-3.2-1.2C3,7.9,2.2,9.1,2.4,10.3c0.2,1.9,2.1,3,3.8,2.2c0.3-0.1,0.5-0.2,0.6,0.1S6.7,13,6.5,13.1
		C6,13.2,5.6,13.4,5,13.5c0,0.1,0,0.2,0,0.3c0,1.7,0,3.3,0,5c0,1.1,0.5,1.5,1.5,1.5c8.8,0,17.7,0,26.5,0c1,0,1.5-0.5,1.5-1.4
		c0-1.7,0-3.3,0-5C34.5,13.8,34.5,13.7,34.5,13.6z M20.1,16.3c0.1,0,0.1,0,0.1,0c3.4,0,6.9,0,10.3,0c0.3,0,0.4-0.2,0.4-0.5
		c0-0.4,0-0.8,0-1.2c0-0.3-0.1-0.5-0.4-0.5c-0.7-0.1-1.4-0.3-2.1-0.4c-2-0.2-3.9-0.2-5.9,0c-0.7,0.1-1.5,0.3-2.2,0.4
		c-0.2,0-0.3,0.1-0.3,0.4C20.1,15.1,20.1,15.7,20.1,16.3z M19.4,16.4c0-0.7,0-1.3,0-1.9c0-0.1-0.1-0.2-0.2-0.3
		c-0.4-0.1-0.9-0.3-1.3-0.3c-2.3-0.4-4.6-0.4-6.9-0.1c-0.7,0.1-1.4,0.3-2.1,0.4c-0.2,0-0.3,0.2-0.3,0.4c0,0.4,0,0.8,0,1.1
		c0,0.5,0.1,0.6,0.6,0.6c2.2,0,4.5,0,6.7,0C17,16.4,18.2,16.4,19.4,16.4z M32.1,23c0.3,0,0.5,0,0.8,0c0-0.4,0-0.8,0.4-1.1
		c0.1-0.1,0.2-0.4,0.2-0.5c-0.1-0.1-0.3-0.3-0.5-0.3c-0.3,0-0.6,0-0.8,0c-0.3,0-0.5,0.1-0.5,0.3c0,0.2,0.1,0.4,0.2,0.5
		c0.2,0.2,0.4,0.5,0.3,0.8C32.1,22.8,32.1,22.9,32.1,23z M7.5,23c-0.1-0.5,0-0.9,0.5-1.2c0.1-0.1,0.1-0.3,0.1-0.4
		c-0.1-0.1-0.3-0.3-0.4-0.3c-0.3,0-0.6,0-0.9,0c-0.3,0-0.5,0.1-0.6,0.3c-0.1,0.3,0,0.4,0.2,0.6c0.3,0.2,0.4,0.4,0.3,0.7
		c0,0.1,0,0.2,0,0.3C6.9,23,7.2,23,7.5,23z"/>
	<path d="M12.9,11c-0.2,0.2-0.4,0.5-0.8,0.2c-0.3-0.3,0.1-0.5,0.2-0.8c-0.2-0.2-0.5-0.5-0.2-0.8c0.3-0.3,0.5,0,0.7,0.2
		c0.3-0.1,0.5-0.6,0.8-0.2c0.3,0.3-0.1,0.5-0.2,0.7c0.1,0.3,0.6,0.5,0.2,0.8C13.3,11.5,13.1,11.2,12.9,11z"/>
	<path d="M26.6,9.9c0.2-0.2,0.4-0.6,0.8-0.2c0.3,0.3,0,0.5-0.2,0.8c0.1,0.3,0.6,0.5,0.2,0.8c-0.3,0.3-0.5-0.1-0.7-0.3
		c-0.3,0.1-0.5,0.6-0.8,0.2c-0.3-0.3,0.1-0.5,0.2-0.8c-0.2-0.2-0.5-0.4-0.2-0.8C26.2,9.4,26.4,9.8,26.6,9.9z"/>
	<path d="M12.9,5.9c0.3-0.2,0.5-0.6,0.8-0.2c0.3,0.3,0,0.5-0.2,0.8c0.2,0.2,0.6,0.5,0.2,0.8c-0.3,0.3-0.5-0.1-0.8-0.2
		c-0.2,0.1-0.4,0.6-0.8,0.2c-0.3-0.3,0.1-0.5,0.2-0.7c-0.2-0.2-0.6-0.5-0.2-0.8C12.4,5.4,12.6,5.8,12.9,5.9z"/>
	<path d="M26.6,5.9c0.2-0.2,0.4-0.6,0.8-0.2c0.3,0.3-0.1,0.5-0.2,0.8c0.2,0.2,0.5,0.5,0.2,0.8c-0.3,0.3-0.5-0.1-0.7-0.2
		c-0.2,0.1-0.5,0.6-0.8,0.2C25.6,7,26,6.8,26.1,6.6c-0.2-0.2-0.5-0.5-0.2-0.8C26.2,5.4,26.4,5.8,26.6,5.9z"/>
	<path d="M19.2,6.5c-0.1-0.2-0.5-0.4-0.2-0.8c0.3-0.3,0.5,0.1,0.8,0.2c0.2-0.2,0.4-0.6,0.8-0.2c0.3,0.3-0.1,0.5-0.2,0.8
		c0.1,0.2,0.4,0.4,0.1,0.7C20.2,7.5,20,7.1,19.8,7c-0.2,0.1-0.5,0.6-0.8,0.2C18.7,6.9,19.1,6.7,19.2,6.5z"/>
	<path d="M19.2,10.5C19,10.3,18.7,10,19,9.7s0.5,0.1,0.7,0.2c0.2-0.1,0.5-0.6,0.8-0.2c0.3,0.3-0.1,0.5-0.2,0.8
		c0.2,0.2,0.5,0.4,0.2,0.8c-0.3,0.3-0.5-0.1-0.8-0.2c-0.2,0.1-0.5,0.6-0.8,0.2C18.7,10.9,19.1,10.7,19.2,10.5z"/>
	<path d="M3.5,10.1c0-0.9,0.7-1.6,1.5-1.6s1.6,0.7,1.6,1.6c0,0.9-0.7,1.5-1.6,1.5C4.2,11.6,3.5,10.9,3.5,10.1z M5.9,10.1
		c0-0.5-0.4-0.8-0.8-0.8c-0.5,0-0.8,0.4-0.8,0.8c0,0.4,0.4,0.8,0.8,0.8S5.9,10.5,5.9,10.1z"/>
	<path d="M36,10.1c0,0.9-0.7,1.6-1.5,1.6c-0.9,0-1.6-0.7-1.6-1.5s0.7-1.6,1.5-1.6C35.3,8.5,36,9.2,36,10.1z M33.6,10.1
		c0,0.4,0.4,0.8,0.8,0.8c0.4,0,0.8-0.4,0.8-0.8c0-0.4-0.4-0.8-0.8-0.8C34,9.2,33.6,9.6,33.6,10.1z"/>
</g>
</svg>
