<?xml version="1.0" encoding="utf-8"?>
<!-- Generator: Adobe Illustrator 22.0.1, SVG Export Plug-In . SVG Version: 6.00 Build 0)  -->
<svg version="1.1" id="Capa_1" xmlns="http://www.w3.org/2000/svg" xmlns:xlink="http://www.w3.org/1999/xlink" x="0px" y="0px"
	 viewBox="0 0 15 15" style="enable-background:new 0 0 15 15;" xml:space="preserve">
<style type="text/css">
	.st0{fill:#4F4D4D;}
</style>
<g transform="matrix(1 0 0 1 0 0)">
	<g>
		<path class="st0" d="M0,6.7l0,1.7c0,0.1,0,0.1,0.1,0.2c0.1,0.1,0.1,0.1,0.2,0.1h10.8v1.9c0,0.1,0.1,0.2,0.2,0.3c0.1,0,0.2,0,0.3,0
			l3.3-3C15,7.7,15,7.6,15,7.5c0-0.1,0-0.2-0.1-0.2l-3.3-3.1c-0.1-0.1-0.2-0.1-0.3-0.1c-0.1,0.1-0.2,0.1-0.2,0.3v1.9H0.3
			c-0.1,0-0.1,0-0.2,0.1C0,6.5,0,6.6,0,6.7z"/>
	</g>
</g>
</svg>
