<?xml version="1.0" encoding="utf-8"?>
<!-- Generator: Adobe Illustrator 22.0.1, SVG Export Plug-In . SVG Version: 6.00 Build 0)  -->
<svg version="1.1" id="Capa_1" xmlns="http://www.w3.org/2000/svg" xmlns:xlink="http://www.w3.org/1999/xlink" x="0px" y="0px"
	 viewBox="0 0 15 15" style="enable-background:new 0 0 15 15;" xml:space="preserve">
<style type="text/css">
	.st0{fill:#4F4D4D;}
</style>
<g transform="matrix(1 0 0 1 0 0)">
	<g>
		<path class="st0" d="M14.9,6.5c-0.1-0.1-0.1-0.1-0.2-0.1H3.9V4.4c0-0.1-0.1-0.2-0.2-0.3c-0.1,0-0.2,0-0.3,0.1L0.1,7.3
			C0,7.4,0,7.4,0,7.5c0,0.1,0,0.1,0.1,0.2l3.3,3c0.1,0.1,0.2,0.1,0.3,0c0.1,0,0.2-0.1,0.2-0.3V8.6h10.8c0.1,0,0.1,0,0.2-0.1
			C15,8.5,15,8.4,15,8.3V6.7C15,6.6,15,6.5,14.9,6.5z"/>
	</g>
</g>
</svg>
