<?xml version="1.0" encoding="utf-8"?>
<!-- Generator: Adobe Illustrator 22.0.1, SVG Export Plug-In . SVG Version: 6.00 Build 0)  -->
<svg version="1.1" id="BACKGROUND_2" xmlns="http://www.w3.org/2000/svg" xmlns:xlink="http://www.w3.org/1999/xlink" x="0px"
	 y="0px" viewBox="0 0 56.9 51" style="enable-background:new 0 0 56.9 51;" xml:space="preserve">
<style type="text/css">
	.st0{fill:#6A6A6A;}
</style>
<g>
	<path class="st0" d="M4.7,3.3C4.7,3.7,4.4,4,4,4S3.3,3.7,3.3,3.3c0-0.4,0.3-0.7,0.7-0.7S4.7,2.9,4.7,3.3z"/>
	<path class="st0" d="M17,3.3C17,3.7,16.7,4,16.3,4c-0.4,0-0.7-0.3-0.7-0.7c0-0.4,0.3-0.7,0.7-0.7C16.7,2.6,17,2.9,17,3.3z"/>
	<path class="st0" d="M29.4,3.3c0,0.4-0.3,0.7-0.7,0.7C28.3,4,28,3.7,28,3.3c0-0.4,0.3-0.7,0.7-0.7C29.1,2.6,29.4,2.9,29.4,3.3z"/>
	<path class="st0" d="M41.7,3.3C41.7,3.7,41.4,4,41,4c-0.4,0-0.7-0.3-0.7-0.7c0-0.4,0.3-0.7,0.7-0.7C41.4,2.6,41.7,2.9,41.7,3.3z"/>
	<path class="st0" d="M54.1,3.3c0,0.4-0.3,0.7-0.7,0.7c-0.4,0-0.7-0.3-0.7-0.7c0-0.4,0.3-0.7,0.7-0.7C53.8,2.6,54.1,2.9,54.1,3.3z"
		/>
</g>
<g>
	<path class="st0" d="M4.7,14.4c0,0.4-0.3,0.7-0.7,0.7s-0.7-0.3-0.7-0.7c0-0.4,0.3-0.7,0.7-0.7S4.7,14,4.7,14.4z"/>
	<path class="st0" d="M17,14.4c0,0.4-0.3,0.7-0.7,0.7c-0.4,0-0.7-0.3-0.7-0.7c0-0.4,0.3-0.7,0.7-0.7C16.7,13.7,17,14,17,14.4z"/>
	<path class="st0" d="M29.4,14.4c0,0.4-0.3,0.7-0.7,0.7c-0.4,0-0.7-0.3-0.7-0.7c0-0.4,0.3-0.7,0.7-0.7C29.1,13.7,29.4,14,29.4,14.4z
		"/>
	<path class="st0" d="M41.7,14.4c0,0.4-0.3,0.7-0.7,0.7c-0.4,0-0.7-0.3-0.7-0.7c0-0.4,0.3-0.7,0.7-0.7C41.4,13.7,41.7,14,41.7,14.4z
		"/>
	<path class="st0" d="M54.1,14.4c0,0.4-0.3,0.7-0.7,0.7c-0.4,0-0.7-0.3-0.7-0.7c0-0.4,0.3-0.7,0.7-0.7C53.8,13.7,54.1,14,54.1,14.4z
		"/>
</g>
<g>
	<path class="st0" d="M41.7,25.5c0,0.4-0.3,0.7-0.7,0.7c-0.4,0-0.7-0.3-0.7-0.7c0-0.4,0.3-0.7,0.7-0.7
		C41.4,24.8,41.7,25.1,41.7,25.5z"/>
	<path class="st0" d="M54.1,25.5c0,0.4-0.3,0.7-0.7,0.7c-0.4,0-0.7-0.3-0.7-0.7c0-0.4,0.3-0.7,0.7-0.7
		C53.8,24.8,54.1,25.1,54.1,25.5z"/>
</g>
<g>
	<path class="st0" d="M41.7,36.6c0,0.4-0.3,0.7-0.7,0.7c-0.4,0-0.7-0.3-0.7-0.7c0-0.4,0.3-0.7,0.7-0.7
		C41.4,35.9,41.7,36.2,41.7,36.6z"/>
	<path class="st0" d="M54.1,36.6c0,0.4-0.3,0.7-0.7,0.7c-0.4,0-0.7-0.3-0.7-0.7c0-0.4,0.3-0.7,0.7-0.7
		C53.8,35.9,54.1,36.2,54.1,36.6z"/>
</g>
<g>
	<path class="st0" d="M41.7,47.7c0,0.4-0.3,0.7-0.7,0.7c-0.4,0-0.7-0.3-0.7-0.7c0-0.4,0.3-0.7,0.7-0.7C41.4,47,41.7,47.3,41.7,47.7z
		"/>
	<path class="st0" d="M54.1,47.7c0,0.4-0.3,0.7-0.7,0.7c-0.4,0-0.7-0.3-0.7-0.7c0-0.4,0.3-0.7,0.7-0.7C53.8,47,54.1,47.3,54.1,47.7z
		"/>
</g>
</svg>
