<?xml version="1.0" encoding="utf-8"?>
<!-- Generator: Adobe Illustrator 22.0.1, SVG Export Plug-In . SVG Version: 6.00 Build 0)  -->
<svg version="1.1" id="BACKGROUND_2" xmlns="http://www.w3.org/2000/svg" xmlns:xlink="http://www.w3.org/1999/xlink" x="0px"
	 y="0px" viewBox="0 0 61.2 56" style="enable-background:new 0 0 61.2 56;" xml:space="preserve">
<style type="text/css">
	.st0{fill:#FFFFFF;}
	.st1{fill:#5A9F4E;}
</style>
<g>
	<g>
		<g>
			<g>
				<path class="st0" d="M3.8,52.3c0-0.4-0.3-0.7-0.7-0.7s-0.7,0.3-0.7,0.7c0,0.4,0.3,0.7,0.7,0.7S3.8,52.7,3.8,52.3z"/>
				<path class="st0" d="M16.2,52.3c0-0.4-0.3-0.7-0.7-0.7c-0.4,0-0.7,0.3-0.7,0.7c0,0.4,0.3,0.7,0.7,0.7
					C15.9,53,16.2,52.7,16.2,52.3z"/>
				<path class="st0" d="M28.5,52.3c0-0.4-0.3-0.7-0.7-0.7c-0.4,0-0.7,0.3-0.7,0.7c0,0.4,0.3,0.7,0.7,0.7
					C28.2,53,28.5,52.7,28.5,52.3z"/>
				<path class="st0" d="M40.9,52.3c0-0.4-0.3-0.7-0.7-0.7c-0.4,0-0.7,0.3-0.7,0.7c0,0.4,0.3,0.7,0.7,0.7
					C40.6,53,40.9,52.7,40.9,52.3z"/>
				<path class="st0" d="M53.2,52.3c0-0.4-0.3-0.7-0.7-0.7c-0.4,0-0.7,0.3-0.7,0.7c0,0.4,0.3,0.7,0.7,0.7
					C52.9,53,53.2,52.7,53.2,52.3z"/>
			</g>
			<g>
				<path class="st0" d="M3.8,41.2c0-0.4-0.3-0.7-0.7-0.7s-0.7,0.3-0.7,0.7c0,0.4,0.3,0.7,0.7,0.7S3.8,41.6,3.8,41.2z"/>
				<path class="st0" d="M16.2,41.2c0-0.4-0.3-0.7-0.7-0.7c-0.4,0-0.7,0.3-0.7,0.7c0,0.4,0.3,0.7,0.7,0.7
					C15.9,41.9,16.2,41.6,16.2,41.2z"/>
				<path class="st0" d="M28.5,41.2c0-0.4-0.3-0.7-0.7-0.7c-0.4,0-0.7,0.3-0.7,0.7c0,0.4,0.3,0.7,0.7,0.7
					C28.2,41.9,28.5,41.6,28.5,41.2z"/>
				<path class="st0" d="M40.9,41.2c0-0.4-0.3-0.7-0.7-0.7c-0.4,0-0.7,0.3-0.7,0.7c0,0.4,0.3,0.7,0.7,0.7
					C40.6,41.9,40.9,41.6,40.9,41.2z"/>
				<path class="st0" d="M53.2,41.2c0-0.4-0.3-0.7-0.7-0.7c-0.4,0-0.7,0.3-0.7,0.7c0,0.4,0.3,0.7,0.7,0.7
					C52.9,41.9,53.2,41.6,53.2,41.2z"/>
			</g>
			<g>
				<path class="st0" d="M3.8,30.1c0-0.4-0.3-0.7-0.7-0.7s-0.7,0.3-0.7,0.7s0.3,0.7,0.7,0.7S3.8,30.5,3.8,30.1z"/>
				<path class="st0" d="M16.2,30.1c0-0.4-0.3-0.7-0.7-0.7c-0.4,0-0.7,0.3-0.7,0.7s0.3,0.7,0.7,0.7C15.9,30.8,16.2,30.5,16.2,30.1z"
					/>
				<path class="st0" d="M28.5,30.1c0-0.4-0.3-0.7-0.7-0.7c-0.4,0-0.7,0.3-0.7,0.7s0.3,0.7,0.7,0.7C28.2,30.8,28.5,30.5,28.5,30.1z"
					/>
				<path class="st0" d="M40.9,30.1c0-0.4-0.3-0.7-0.7-0.7c-0.4,0-0.7,0.3-0.7,0.7c0,0.4,0.3,0.7,0.7,0.7
					C40.6,30.8,40.9,30.5,40.9,30.1z"/>
				<path class="st0" d="M53.2,30.1c0-0.4-0.3-0.7-0.7-0.7c-0.4,0-0.7,0.3-0.7,0.7s0.3,0.7,0.7,0.7C52.9,30.8,53.2,30.5,53.2,30.1z"
					/>
			</g>
			<g>
				<path class="st0" d="M3.8,19c0-0.4-0.3-0.7-0.7-0.7S2.4,18.6,2.4,19c0,0.4,0.3,0.7,0.7,0.7S3.8,19.4,3.8,19z"/>
				<path class="st0" d="M16.2,19c0-0.4-0.3-0.7-0.7-0.7c-0.4,0-0.7,0.3-0.7,0.7c0,0.4,0.3,0.7,0.7,0.7C15.9,19.7,16.2,19.4,16.2,19
					z"/>
				<path class="st0" d="M28.5,19c0-0.4-0.3-0.7-0.7-0.7c-0.4,0-0.7,0.3-0.7,0.7c0,0.4,0.3,0.7,0.7,0.7C28.2,19.7,28.5,19.4,28.5,19
					z"/>
				<path class="st0" d="M40.9,19c0-0.4-0.3-0.7-0.7-0.7c-0.4,0-0.7,0.3-0.7,0.7c0,0.4,0.3,0.7,0.7,0.7C40.6,19.7,40.9,19.4,40.9,19
					z"/>
				<path class="st0" d="M53.2,19c0-0.4-0.3-0.7-0.7-0.7c-0.4,0-0.7,0.3-0.7,0.7c0,0.4,0.3,0.7,0.7,0.7C52.9,19.7,53.2,19.4,53.2,19
					z"/>
			</g>
			<g>
				<path class="st0" d="M3.8,7.9c0-0.4-0.3-0.7-0.7-0.7S2.4,7.5,2.4,7.9c0,0.4,0.3,0.7,0.7,0.7S3.8,8.3,3.8,7.9z"/>
				<path class="st0" d="M16.2,7.9c0-0.4-0.3-0.7-0.7-0.7c-0.4,0-0.7,0.3-0.7,0.7c0,0.4,0.3,0.7,0.7,0.7C15.9,8.6,16.2,8.3,16.2,7.9
					z"/>
				<path class="st0" d="M28.5,7.9c0-0.4-0.3-0.7-0.7-0.7c-0.4,0-0.7,0.3-0.7,0.7c0,0.4,0.3,0.7,0.7,0.7C28.2,8.6,28.5,8.3,28.5,7.9
					z"/>
				<path class="st0" d="M40.9,7.9c0-0.4-0.3-0.7-0.7-0.7c-0.4,0-0.7,0.3-0.7,0.7c0,0.4,0.3,0.7,0.7,0.7C40.6,8.6,40.9,8.3,40.9,7.9
					z"/>
				<path class="st0" d="M53.2,7.9c0-0.4-0.3-0.7-0.7-0.7c-0.4,0-0.7,0.3-0.7,0.7c0,0.4,0.3,0.7,0.7,0.7C52.9,8.6,53.2,8.3,53.2,7.9
					z"/>
			</g>
		</g>
	</g>
</g>
<rect x="45.5" y="0.9" class="st1" width="14" height="14"/>
</svg>
