<?xml version="1.0" encoding="utf-8"?>
<!-- Generator: Adobe Illustrator 22.0.1, SVG Export Plug-In . SVG Version: 6.00 Build 0)  -->
<svg version="1.1" id="Layer_1" xmlns="http://www.w3.org/2000/svg" xmlns:xlink="http://www.w3.org/1999/xlink" x="0px" y="0px"
	 viewBox="0 0 283.5 283.5" style="enable-background:new 0 0 283.5 283.5;" xml:space="preserve">
<style type="text/css">
	.st0{clip-path:url(#SVGID_2_);}
	.st1{fill:#FEFEFE;}
	.st2{fill:#212121;}
	.st3{fill:#099F46;}
	.st4{fill:#FCFCFC;}
	.st5{fill:#C1C1C1;}
	.st6{fill:#E1E1E1;}
	.st7{fill:#08A046;}
	.st8{fill:#FFFFFF;}
	.st9{fill:none;stroke:#08A046;stroke-width:4;stroke-miterlimit:10;}
</style>
<g>
	<defs>
		<circle id="SVGID_1_" cx="141.7" cy="111.2" r="81.2"/>
	</defs>
	<use xlink:href="#SVGID_1_"  style="overflow:visible;fill:#08A046;"/>
	<clipPath id="SVGID_2_">
		<use xlink:href="#SVGID_1_"  style="overflow:visible;"/>
	</clipPath>
	<g class="st0">
		<g>
			<path class="st1" d="M140.7,16.4c32.2,0,64.5,0,96.7,0c0.8,0,0.9,0.2,0.9,0.9c0,62.7,0,125.3,0,188c0,0.8-0.2,0.9-0.9,0.9
				c-64.5,0-128.9,0-193.4,0c-0.8,0-0.9-0.2-0.9-0.9c0-62.7,0-125.3,0-188c0-0.8,0.2-0.9,0.9-0.9C76.2,16.5,108.5,16.4,140.7,16.4z
				 M187,132.9c0.4,0.2,0.8,0.3,1.2,0.5c1.9,1,3.9,0.3,5.1-1.4c0.9-1.2,1.5-2.6,1.7-4.1c0.6-3.9,1.3-7.9,1.9-11.8
				c0.1-0.8,0.4-1.1,1.2-1.3c2.6-0.9,5.1-1.9,7.2-3.8c1.8-1.7,2.9-3.7,2.1-6.3c-0.8-2.6-1.6-5.2-2.4-7.8c-0.2-0.7-0.2-1.3-0.1-2
				c0.7-3.3,1-6.7,1.1-10.2c0.1-1.5-0.4-2.8-1.3-3.9c-0.5-0.6-0.9-1.1-1.5-1.6c-0.5-0.4-0.6-0.9-0.7-1.5c-0.3-4-0.8-8-1.8-12
				c-1.9-7.9-5.2-15.1-10.9-21.1c-4.3-4.5-9.2-8.1-14.5-11.3c-5.3-3.2-11-5.7-16.9-7.7c-2.1-0.7-4.3-1.1-6.3-1.9
				c-5.5-2.2-11.1-2.5-16.8-1.6c-2.2,0.3-4.3,1.3-6.4,1.9c-10,2.7-19.3,6.8-27.7,12.7c-5.4,3.8-10.3,8.1-13.9,13.7
				c-5.2,8.1-7.3,17.2-8,26.7c-0.1,1-0.3,1.8-1.1,2.5c-1.7,1.6-2.6,3.5-2.4,6c0.3,3.2,0.5,6.4,1.1,9.5c0.1,0.5,0.1,1-0.1,1.5
				c-0.8,2.5-1.6,5.1-2.5,7.6c-0.5,1.4-0.4,2.7,0.3,4.1c0.6,1.3,1.5,2.3,2.6,3.2c2,1.6,4.3,2.5,6.7,3.3c0.5,0.2,0.8,0.4,0.9,1
				c0.5,3,1,6.1,1.5,9.1c0.3,2,0.5,4,1.4,5.9c1.5,2.9,3.2,3.6,6.2,2.5c0.5-0.2,0.7-0.1,0.8,0.4c0.2,1,0.3,1.9,0.3,2.9
				c-0.1,7.6-1.1,15.1-1.6,22.6c-0.3,4.9-0.6,9.8-0.5,14.7c0.1,4.2,1.5,7.5,4.9,10c0.5,0.4,1,0.8,1.5,1.2
				c7.7,5.7,16.1,10.2,24.9,13.9c1.8,0.8,3.6,1.5,5.5,1.6c7.4,0.5,14.9,0.4,22.4,0.1c1.3-0.1,2.6-0.3,3.8-0.7
				c6.6-2.5,12.8-6,18.8-9.8c3.8-2.4,7.5-5,10.7-8.2c1.2-1.3,2.1-2.8,2.4-4.5c0.4-2,0.7-4,0.7-6.1c0.2-6.3-0.3-12.6-0.9-18.9
				c-0.5-5.3-1.1-10.6-1.2-16C186.4,135.4,186.6,134.2,187,132.9z"/>
			<path class="st2" d="M187,132.9c-0.4,1.2-0.6,2.4-0.6,3.6c0.1,5.4,0.7,10.7,1.2,16c0.6,6.3,1.1,12.6,0.9,18.9
				c-0.1,2-0.3,4.1-0.7,6.1c-0.4,1.8-1.2,3.2-2.4,4.5c-3.2,3.3-6.9,5.8-10.7,8.2c-6,3.8-12.2,7.2-18.8,9.8c-1.2,0.5-2.5,0.7-3.8,0.7
				c-7.5,0.3-14.9,0.4-22.4-0.1c-2-0.1-3.8-0.9-5.5-1.6c-8.8-3.7-17.2-8.2-24.9-13.9c-0.5-0.4-1-0.8-1.5-1.2
				c-3.4-2.5-4.8-5.8-4.9-10c-0.1-4.9,0.2-9.8,0.5-14.7c0.5-7.5,1.5-15,1.6-22.6c0-1,0-1.9-0.3-2.9c-0.1-0.5-0.3-0.6-0.8-0.4
				c-3,1.1-4.7,0.3-6.2-2.5c-1-1.9-1.1-3.9-1.4-5.9c-0.5-3-1-6.1-1.5-9.1c-0.1-0.6-0.4-0.8-0.9-1c-2.4-0.8-4.7-1.8-6.7-3.3
				c-1.1-0.9-2-1.9-2.6-3.2c-0.6-1.3-0.8-2.6-0.3-4.1c0.9-2.5,1.6-5.1,2.5-7.6c0.2-0.5,0.2-1,0.1-1.5c-0.6-3.1-0.9-6.3-1.1-9.5
				c-0.2-2.5,0.7-4.4,2.4-6c0.8-0.7,1-1.5,1.1-2.5c0.7-9.5,2.8-18.5,8-26.7c3.6-5.6,8.5-9.9,13.9-13.7c8.4-5.9,17.7-10,27.7-12.7
				c2.1-0.6,4.2-1.5,6.4-1.9c5.8-0.9,11.4-0.5,16.8,1.6c2,0.8,4.2,1.2,6.3,1.9c5.9,1.9,11.6,4.5,16.9,7.7
				c5.3,3.2,10.2,6.8,14.5,11.3c5.7,6,9,13.2,10.9,21.1c1,3.9,1.5,7.9,1.8,12c0,0.6,0.2,1.1,0.7,1.5c0.5,0.5,1,1.1,1.5,1.6
				c0.9,1.1,1.4,2.4,1.3,3.9c-0.1,3.4-0.4,6.8-1.1,10.2c-0.1,0.7-0.1,1.3,0.1,2c0.8,2.6,1.7,5.2,2.4,7.8c0.7,2.6-0.3,4.6-2.1,6.3
				c-2.1,1.9-4.6,2.9-7.2,3.8c-0.7,0.2-1,0.5-1.2,1.3c-0.6,4-1.3,7.9-1.9,11.8c-0.2,1.5-0.8,2.9-1.7,4.1c-1.2,1.6-3.2,2.4-5.1,1.4
				C187.8,133.2,187.4,133.1,187,132.9z M119.4,146.3C119.4,146.2,119.4,146.2,119.4,146.3c0.1-0.1,0.1-0.1,0.1-0.1
				C119.4,146.2,119.4,146.2,119.4,146.3c-0.1,0-0.2-0.1-0.1,0.1C119.3,146.3,119.3,146.3,119.4,146.3z M162.1,146.1
				c0-0.1,0.1-0.2-0.1-0.1C162,146,162,146,162.1,146.1c0.1,0.1,0.3,0.2,0.5,0.1c-0.1,0.3,0.2,0.5,0.4,0.6c1.6,1.5,3.1,3,4.7,4.5
				c2,1.9,3.8,3.9,4.8,6.5c0.4,1.2,0.8,2.4,1.3,3.6c-0.6-3.3-1.6-6.5-4.1-8.9c-2.2-2.2-4.6-4.3-7-6.3
				C162.4,146.1,162.2,146.1,162.1,146.1z M147.4,109.1c0.1,0,0.1,0,0.2,0.1c1.9,0.9,3.3,2.3,4.6,3.9c0.5,0.6,1.1,1.3,1.6,1.9
				c4.1,5.1,9.4,7.6,16.1,7.3c3.9-0.2,6.5-1.8,8-5.4c0,0,0.1-0.1,0.1-0.1c1.8-4.2,2.4-8.6,2.5-13.1c0-0.5-0.1-0.9-0.5-1.3
				c-0.6-1.6-1.7-2.7-3.1-3.6c0.8,1,1.8,1.9,2.4,3.2c-0.1,0.1-0.1,0.1-0.2,0.2c-1-0.3-2-0.8-2.9-1.3c-3-1.6-6.7-1.4-9.4,1.7
				c-0.5,0.6-0.5,0.7,0.2,1c2.2,0.7,4.3,1.8,5.7,3.7c0.4,0.6,0.8,1.2,1.5,1.4c0.2,0.1,0.5,0.2,0.4,0.5c-0.1,0.1-0.3,0.1-0.5,0.2
				c-2.3,0-4.5,0.1-6.8,0.1c-2.6,0.1-5.3,0-7.9,0.4c-1.2,0.1-2.5,0-3.9,0.4c2.8,2,5.7,3.5,8.6,5.3c-0.2,0-0.4,0-0.5-0.1
				c-4.8-1.5-9.6-2.9-13.4-6.5c0,0,0-0.1,0-0.1c-1.6-2.3-2.9-4.7-3.1-7.6c0-0.2-0.2-0.3-0.4-0.3c-1.2,0.1-2.3-0.1-3.5,0.2
				c-0.7-0.2-1.3-0.1-2,0c-2.2,0-4.4-0.1-6.6-0.1c-0.3,0-0.6,0-0.6,0.4c-0.2,2.7-1.4,5-2.8,7.2c-3.8,4.1-8.9,5.3-13.9,6.9
				c2.7-1.7,5.5-3.2,8.3-5.2c-2.7-0.3-5.1-0.5-7.6-0.6c-0.4,0-0.8-0.1-1.2-0.1c-3.5-0.1-7-0.2-10.5-0.3c2.4-2.5,4.6-5.4,8.8-6
				c-0.7-0.7-1.2-1-1.6-1.4c-2.1-2-4.5-2.6-7.3-1.6c-1.2,0.4-2.3,1.1-3.5,1.5c-0.9,0.4-1.3,1-1.3,1.9c0.1,3.4,0.5,6.8,1.7,10.1
				c0.2,1.1,0.7,2.1,1.2,3.2c1.5,3.1,3.7,5,7.3,5.2c5.8,0.4,10.9-0.9,14.9-5.3c1.1-1.2,2.2-2.5,3.3-3.8c1.7-1.9,3.4-3.8,6.1-4.3
				c1.7-0.3,3.5-0.4,5.2-0.4C143.2,108.3,145.3,108.4,147.4,109.1z M133.6,151.5c-0.1,0-0.1,0-0.2,0c-3.8,1.2-7.5,2.7-11.3,3.8
				c-0.5,0.1-0.5,0.4-0.4,0.8c0.2,1.1,0.7,2.1,1.6,2.8c1.7,1.5,3.7,2.2,6,2.3c1.9,0.1,3.8-0.5,5.5-1.2c3.8-1.4,7.7-1.5,11.5-0.1
				c1.4,0.5,2.7,1,4.1,1.2c2.9,0.4,5.5-0.1,7.7-2.2c0.6-0.3,0.9-0.9,1.2-1.5c0.7-1.4,0.6-1.7-0.9-2.1c-0.3-0.1-0.6-0.2-0.9-0.3
				c-4.1-1.2-8.1-2.8-12-4.3C141.3,149,137.5,149.9,133.6,151.5z M168.7,148c1.1-0.6,2.2-1.5,3.2-2.3c1-0.8,1.8-1.9,2.1-3.2
				c0.3-1.5,0.5-3,0.6-4.5c0.2-2.2,0.6-4.4,2-6.3c1.7-2.2,3.2-4.6,4.8-6.9c0.3-0.5,0.6-0.9,0.8-1.5c0.9-2.8,0.9-5.7,1.1-8.5
				c-0.5,1.1-0.8,2.2-1.3,3.3c-1.9,4.3-4.8,7.5-9.8,8c-5.1,0.5-10,0.1-14.5-2.6c-3.2-1.8-5.7-4.4-7.9-7.3c-2.2-2.9-4.9-4.2-8.5-3.7
				c-0.1,0-0.1,0-0.2,0c-0.9-0.1-1.9-0.1-2.8,0c-1.8,0.1-3.2,0.7-4.4,2.1c-1,1.2-2,2.3-3,3.5c-2,2.3-4.2,4.4-6.9,5.8
				c-4.4,2.3-9.1,2.7-13.9,2.1c-3.7-0.4-6.3-2.3-8.3-5.3c-1.6-2.5-2.5-5.2-3.2-8c-0.1-0.6-0.1-1.2-0.5-1.8c0.1,3.1,0.2,6.2,0.6,9.2
				c0.2,1.6,0.4,3.3,1.4,4.7c1.7,2.5,3.4,5,5.2,7.4c1,1.4,1.4,2.8,1.6,4.4c0.1,0.8,0.2,1.6,0.2,2.4c0.2,3.1,1.2,5.9,3.9,7.8
				c0.5,0.4,1,0.8,1.4,1.2c0.4,0.4,1,0.7,1.6,0.2c2.9-2.4,5.6-5.1,8.3-7.7c1.7-1.6,3.3-3.3,5.1-4.9c0.7-0.7,1.5-1.3,2.2-2.1
				c0.6-0.7,1.3-1.4,2.1-1.9c0,0.2-0.2,0.4-0.3,0.6c-0.6,1.3-1.3,2.6-1.5,4.1c-0.1,0.5,0.2,0.7,0.6,0.7c0.3,0,0.8,0.4,0.9,0
				c0.1-1.4,0.8-0.5,1.2-0.3c1.9,0.6,3.5,1.8,5.5,1.9c3.1,0.2,6.1,0.3,8.9-1.3c0.7-0.4,1.4-0.6,2.1-0.9c0.2-0.1,0.4-0.3,0.5,0
				c0.3,1,0.9,0.2,1.2,0.1c0.5-0.1,0.2-0.6,0.2-0.9c-0.2-0.7-0.5-1.4-0.7-2.1c-0.3-0.7-0.6-1.4-1-2.1c2.1,1.5,3.7,3.3,5.5,4.9
				c4.3,3.8,8.6,7.6,12.9,11.4C168,148.5,168.3,148.5,168.7,148z M84,77.3c-0.1,0.2-0.2,0.3-0.1,0.5c0.5,2.4-0.9,3.9-2.6,5.3
				c-0.8,0.6-1,1.5-0.9,2.4c0.3,3.2,0.5,6.4,1.2,9.6c0.3,1.5-0.1,2.4-1.3,3.3c-1.6,1.2-3,2.6-3.8,4.5c-1,2.5-0.8,5.1,1.1,6.8
				c0.2-0.4-0.2-0.7-0.3-1c-0.4-1-0.7-2-0.5-3.2c0.5-2.5,2.2-4.1,4.2-5.5c5.8-4.1,12.4-6.4,19.3-8c6-1.4,12.1-2.4,18.2-2.9
				c5.1-0.4,10.1-0.8,15.2-0.9c9.8-0.1,19.7-0.1,29.5,0.9c3.5,0.4,7,0.7,10.4,1.3c4.5,0.8,8.9,1.7,13.2,3.1
				c5.2,1.7,10.2,3.7,14.5,7.2c2.1,1.7,3.6,3.7,3,6.6c-0.1,0.8-0.5,1.4-0.9,2.2c0.6-0.2,0.9-0.7,1.2-1.1c0.9-1.5,0.9-3.1,0.4-4.7
				c-0.6-2.4-2.4-4-4.1-5.5c-0.9-0.8-1.2-1.7-0.9-2.8c0.7-3.5,1.2-6.9,1.2-10.5c0-0.6-0.1-1.1-0.6-1.6c-1.4-1.4-3.3-2.6-2.7-5
				c-0.3-3.6-0.7-7.2-1.5-10.7c-1.6-7.1-4.3-13.6-9.3-19c-4.4-4.8-9.6-8.6-15.2-11.8c-4.6-2.6-9.4-4.7-14.3-6.4
				c-2.3-0.8-4.7-1.2-6.9-2.1c-4.7-1.9-9.5-2.1-14.4-1.5c-2,0.3-3.8,1.2-5.7,1.7c-9.3,2.5-18,6.2-26,11.7
				c-4.7,3.2-9.1,6.8-12.4,11.5c-3.7,5.3-5.9,11.2-7.1,17.5C84.5,71.9,84.1,74.6,84,77.3z M178.2,93.4c-2.2-0.5-4.4-1-6.7-1.4
				c-5-0.9-10-1.4-15-1.7c-4.7-0.3-9.4-0.1-14.1-0.1c-10.5-0.1-21-0.2-31.5,1.7c-2.5,0.5-5.1,0.9-7.5,1.6
				C128.3,97.3,153.3,97.2,178.2,93.4z M188,105.6c1.1-0.2,2.1-0.5,3-0.6c1.3-0.2,1.6,0,1.7,1.3c0.4,3,0,5.9-0.3,8.9
				c-0.4-1.5-0.1-3.1-0.6-4.6c-2,4.5-2.9,9.2-2.5,14.2c-0.4-0.4-0.4-0.9-0.9-1.2c-0.1,2.2-0.5,4.2-0.9,6.3c-0.1,0.3-0.3,0.7,0.2,1
				c1.1,0.6,2.1,0.5,2.9-0.4c1.2-1.2,1.8-2.6,2-4.3c0.4-3.3,1.1-6.5,1.8-9.7c0.5-2.5,1-5,0.9-7.5c-0.2-2.5-0.9-4.7-2.6-6.6
				c-0.5-0.6-1.1-1.2-2-1.2c-0.5,0-1.2-0.1-1.4,0.6C189.1,102.8,188.6,104.1,188,105.6z M89.4,115.3c-0.5-1.9-0.3-3.8-0.5-5.8
				c-0.1-1.2,0-2.5,0.2-3.7c0.1-0.8,0.5-1.1,1.3-1c0.7,0.1,1.5,0.2,2.2,0.4c0.6,0.2,0.8,0.1,0.8-0.6c0.1-1-0.4-1.8-0.6-2.7
				c-0.2-0.9-0.9-1.1-1.7-1.1c-0.7,0-1.3,0.4-1.8,0.9c-1.4,1.4-2.2,3-2.6,4.9c-0.8,3.6,0,7,0.7,10.5c0.6,2.8,1.3,5.5,1.5,8.4
				c0.2,2,0.9,3.9,2.7,5.2c0.3,0.2,0.6,0.4,0.9,0.2c0.3-0.2,0.2-0.6,0.1-0.8c-0.2-2.5-0.4-4.9-0.3-7.4c0.2-3.9-0.8-7.6-2-11.3
				c-0.1-0.3-0.2-0.8-0.7-0.9C89.4,112.2,89.5,113.8,89.4,115.3z M118.7,146.7c-2.6,2.3-5.5,4.5-7.8,7.4c-1.7,2.1-2.3,4.7-2.6,7.4
				c0.8-5.1,4.1-8.6,7.7-12C116.9,148.6,117.8,147.6,118.7,146.7z M148.5,139.5c0,0.1,0,0.2,0,0.3c2.1-0.2,4.2-0.4,6.3-0.6
				c-0.6-0.5-1.2-0.8-1.8-1c-0.4-0.2-0.8-0.3-1.2-0.1C150.8,138.8,149.6,139.1,148.5,139.5z M131.7,139.6c-2.5-1.8-4-1.9-5.4-0.7
				C128.1,139.2,129.8,139.4,131.7,139.6z M97.7,100.8c0.7-1,1.4-2.1,2.1-3.1c-0.4-0.3-0.9-0.2-1.3-0.4c-0.6-0.2-0.9-0.1-0.9,0.6
				C97.7,99,97.7,99.9,97.7,100.8z M183.7,100c-0.1-1,0.2-1.8-0.2-2.5c-0.1-0.2-0.9,0-1.4,0.3C182.7,98.4,183.1,99.1,183.7,100z
				 M194.2,99.7c0.9,0.2,1.5,0.4,2.2,0.6C195.8,99.8,195.2,99.1,194.2,99.7z"/>
			<path class="st3" d="M197.9,78.3c-0.5,2.4,1.3,3.6,2.7,5c0.5,0.5,0.6,1,0.6,1.6c0,3.5-0.5,7-1.2,10.5c-0.2,1.1,0.1,2,0.9,2.8
				c1.7,1.6,3.5,3.1,4.1,5.5c0.4,1.6,0.5,3.2-0.4,4.7c-0.3,0.4-0.5,0.9-1.2,1.1c0.4-0.8,0.8-1.5,0.9-2.2c0.6-2.9-1-4.9-3-6.6
				c-4.3-3.5-9.3-5.5-14.5-7.2c-4.3-1.4-8.7-2.4-13.2-3.1c-3.4-0.6-6.9-0.9-10.4-1.3c-9.8-1-19.7-1.1-29.5-0.9
				c-5.1,0.1-10.1,0.5-15.2,0.9c-6.1,0.5-12.2,1.5-18.2,2.9c-6.9,1.6-13.5,3.9-19.3,8c-2,1.4-3.6,3-4.2,5.5
				c-0.2,1.2,0.1,2.2,0.5,3.2c0.1,0.3,0.5,0.6,0.3,1c-1.9-1.7-2.1-4.3-1.1-6.8c0.8-1.9,2.2-3.3,3.8-4.5c1.1-0.9,1.6-1.8,1.3-3.3
				c-0.7-3.1-1-6.4-1.2-9.6c-0.1-1,0.1-1.8,0.9-2.4c1.7-1.3,3-2.9,2.6-5.3c0-0.1,0.1-0.3,0.1-0.5c0.4-1.1,0.8-2.3,1.2-3.4
				c1.6-3.8,3.5-7.3,6.1-10.6c2.6-3.3,5.6-6.1,8.8-8.7c3.7-2.9,7.8-5.2,12-7.1c5.9-2.7,12.1-4.5,18.5-5.8c-0.2,0.9-0.3,1.7-0.5,2.6
				c-0.5,3-1.3,6-2.9,8.6c-3.8,6.4-8.4,12.2-13.8,17.3c-1.4,1.4-2.9,2.6-4.7,3.5c-5.2,2.4-10.3,4.8-15.5,7.2
				c0.8,0.4,1.4-0.4,2.1-0.2c0.9-0.2,1.8-0.3,2.7-0.5c3.9-0.7,7.8-1.5,11.7-2.2c1.7-0.3,3.5-0.5,5-1.5c2.6-1.7,5-3.6,7.2-5.8
				c2.1-2,4-4.2,5.8-6.4c1.9-2.5,3.7-5,4.9-7.9c0.4-1,0.9-2,1.7-2.9c0.9-1,1.8-1.7,3.3-1.6c2.1,0.1,4.2,0.1,6.3,0
				c2.1-0.1,3.4,1,4.3,2.7c1,2,1.8,4.1,3,5.9c3.6,5.5,8.1,10.2,13.3,14.2c1.6,1.3,3.4,2.5,5.5,2.9c3.3,0.6,6.6,1.3,9.9,1.9
				c1.8,0.3,3.5,0.9,5.3,0.9l0,0c0.3,0.5,0.7,0.1,1,0.2c0.9,0.2,1.7,0.4,2.6,0.6c-4-2-8.1-3.9-12.2-5.8c-3.1-1.4-6.2-2.8-8.6-5.3
				c-4.3-4.2-8-8.8-11.4-13.6c-3.2-4.5-5-9.4-5.6-14.8c0.6,0,1.2,0.1,1.9,0.2c3.3,0.7,6.6,1.6,9.8,2.8c2,0.8,3.9,1.8,5.9,2.5
				c4.6,1.8,8.7,4.5,12.6,7.5c2.7,2.1,5.1,4.5,7.3,7c1.4,1.6,2.7,3.4,3.8,5.2c2.1,3.4,3.9,7,5.2,10.8
				C197.6,78.1,197.6,78.3,197.9,78.3z"/>
			<path class="st4" d="M197.9,78.3c-0.3,0-0.3-0.2-0.3-0.4c-1.3-3.8-3.1-7.4-5.2-10.8c-1.1-1.8-2.4-3.5-3.8-5.2
				c-2.2-2.6-4.6-5-7.3-7c-3.9-3-8-5.7-12.6-7.5c-2-0.8-3.9-1.8-5.9-2.5c-3.2-1.2-6.5-2.1-9.8-2.8c-0.6-0.1-1.2-0.3-1.9-0.2
				c-0.5-2.6-1.1-5.3-1.6-7.9c0.1,4.3,0.4,8.6,0.5,12.9c0.1,2.7,0.8,5.3,2.1,7.6c4.2,7.4,9.5,13.8,15.8,19.4
				c1.7,1.5,3.6,2.6,5.8,3.2c3.6,1,7.3,2,10.9,3.1c0.3,0.1,0.7,0,0.8,0.4c-1.8,0-3.6-0.5-5.3-0.9c-3.3-0.6-6.6-1.3-9.9-1.9
				c-2.1-0.4-3.9-1.6-5.5-2.9c-5.2-4-9.7-8.7-13.3-14.2c-1.2-1.9-2-4-3-5.9c-0.9-1.7-2.1-2.8-4.3-2.7c-2.1,0.1-4.2,0.1-6.3,0
				c-1.5-0.1-2.5,0.6-3.3,1.6c-0.7,0.9-1.2,1.9-1.7,2.9c-1.2,2.9-3,5.4-4.9,7.9c-1.8,2.3-3.8,4.4-5.8,6.4c-2.2,2.1-4.6,4.1-7.2,5.8
				c-1.5,1-3.3,1.2-5,1.5c-3.9,0.7-7.8,1.5-11.7,2.2c-0.9,0.2-1.8,0.3-2.7,0.5c0.2-0.3,0.5-0.3,0.8-0.4c3.2-0.9,6.3-1.8,9.5-2.7
				c2.7-0.8,5.5-1.4,7.7-3.4c6.6-5.7,12.1-12.3,16.4-19.9c0.9-1.7,1.7-3.4,1.9-5.3c0.4-4,0.5-8.1,0.7-12.1c0-0.9,0-1.8,0-2.8
				c0,0-0.1,0-0.1,0c-0.5,2.5-1.1,5.1-1.6,7.6c-6.3,1.3-12.5,3.1-18.5,5.8c-4.3,1.9-8.3,4.2-12,7.1c-3.3,2.5-6.3,5.3-8.8,8.7
				c-2.5,3.3-4.5,6.8-6.1,10.6c-0.5,1.1-0.8,2.2-1.2,3.4c0.1-2.7,0.5-5.5,1-8.1c1.2-6.3,3.3-12.2,7.1-17.5
				c3.3-4.7,7.7-8.3,12.4-11.5c8-5.4,16.7-9.2,26-11.7c1.9-0.5,3.7-1.4,5.7-1.7c4.9-0.7,9.7-0.4,14.4,1.5c2.2,0.9,4.6,1.3,6.9,2.1
				c5,1.7,9.7,3.8,14.3,6.4c5.6,3.2,10.8,7,15.2,11.8c5,5.4,7.7,12,9.3,19C197.2,71.1,197.6,74.7,197.9,78.3z"/>
			<path class="st5" d="M168.7,148c-0.4,0.5-0.7,0.5-1.2,0.1c-4.3-3.8-8.6-7.7-12.9-11.4c-1.9-1.6-3.5-3.5-5.5-4.9
				c0.3,0.7,0.7,1.4,1,2.1c0.3,0.7,0.5,1.4,0.7,2.1c0.1,0.3,0.4,0.8-0.2,0.9c-0.4,0.1-0.9,0.9-1.2-0.1c-0.1-0.3-0.3-0.1-0.5,0
				c-0.7,0.3-1.5,0.5-2.1,0.9c-2.8,1.5-5.8,1.5-8.9,1.3c-2-0.1-3.7-1.3-5.5-1.9c-0.4-0.1-1.1-1-1.2,0.3c0,0.3-0.6,0-0.9,0
				c-0.4-0.1-0.6-0.2-0.6-0.7c0.2-1.5,0.9-2.8,1.5-4.1c0.1-0.2,0.2-0.4,0.3-0.6c-0.8,0.5-1.5,1.1-2.1,1.9c-0.6,0.8-1.4,1.4-2.2,2.1
				c-1.7,1.6-3.4,3.3-5.1,4.9c-2.7,2.6-5.4,5.3-8.3,7.7c-0.6,0.5-1.2,0.2-1.6-0.2c-0.5-0.4-0.9-0.9-1.4-1.2
				c-2.7-1.9-3.7-4.6-3.9-7.8c-0.1-0.8-0.2-1.6-0.2-2.4c-0.2-1.6-0.6-3.1-1.6-4.4c-1.8-2.4-3.4-4.9-5.2-7.4c-1-1.4-1.2-3-1.4-4.7
				c-0.4-3-0.5-6.1-0.6-9.2c0.4,0.6,0.4,1.2,0.5,1.8c0.7,2.8,1.6,5.6,3.2,8c2,3,4.6,4.9,8.3,5.3c4.9,0.5,9.5,0.2,13.9-2.1
				c2.7-1.4,4.9-3.5,6.9-5.8c1-1.2,2-2.3,3-3.5c1.1-1.4,2.6-2,4.4-2.1c0.9,0,1.9-0.1,2.8,0c0.1,2.3,0.1,4.7,0.1,7
				c0.1,3.9,0.6,7.7,0.7,11.5c0,0.9,0.3,1.8,0.8,2.6c0.7,1,1.6,1.5,2.7,1.3c1.1-0.2,1.6-1,1.8-2c0.2-0.6,0.1-1.1,0.1-1.8
				c-0.1-1.1-0.5-2.1-0.6-3.2c4.1,2.7,8.6,4.4,12.9,6.4c2.3,1.1,4.6,2,6.3,4.1C168.1,141.3,169,144.4,168.7,148z M145.1,136.5
				c-3.3,0.5-6.5,0.3-9.6,0.1C138.6,138,141.8,138.5,145.1,136.5z"/>
			<path class="st6" d="M168.7,148c0.4-3.5-0.5-6.7-2.8-9.4c-1.6-2-4-3-6.3-4.1c-4.3-2-8.8-3.7-12.9-6.4c0.1,1.1,0.5,2.1,0.6,3.2
				c0.1,0.6,0.1,1.2-0.1,1.8c-0.3,1-0.7,1.8-1.8,2c-1.2,0.2-2.1-0.3-2.7-1.3c-0.5-0.8-0.8-1.7-0.8-2.6c-0.1-3.9-0.6-7.7-0.7-11.5
				c0-2.3-0.1-4.7-0.1-7c0.1,0,0.1,0,0.2,0c3.6-0.5,6.3,0.8,8.5,3.7c2.2,2.9,4.7,5.5,7.9,7.3c4.5,2.6,9.4,3.1,14.5,2.6
				c5-0.5,7.9-3.7,9.8-8c0.5-1.1,0.9-2.2,1.3-3.3c-0.2,2.9-0.2,5.7-1.1,8.5c-0.2,0.6-0.5,1-0.8,1.5c-1.6,2.3-3.1,4.7-4.8,6.9
				c-1.5,1.9-1.8,4-2,6.3c-0.2,1.5-0.3,3-0.6,4.5c-0.3,1.3-1.1,2.4-2.1,3.2C170.8,146.5,169.8,147.3,168.7,148z"/>
			<path class="st5" d="M178.2,93.4c-24.9,3.8-49.9,3.9-74.8,0.1c2.5-0.7,5-1.1,7.5-1.6c10.4-1.9,20.9-1.7,31.5-1.7
				c4.7,0,9.4-0.2,14.1,0.1c5,0.3,10,0.9,15,1.7C173.8,92.4,176,92.9,178.2,93.4z"/>
			<path class="st4" d="M135.8,108.7c-2.7,0.5-4.4,2.4-6.1,4.3c-1.1,1.3-2.1,2.6-3.3,3.8c-4,4.4-9.1,5.7-14.9,5.3
				c-3.6-0.2-5.8-2.1-7.3-5.2c-0.5-1-1-2.1-1.2-3.2c3.1-1.1,6.4-1.6,9.6-2.4c1.6-0.4,3.2-0.9,4.8-1.2c0.4-0.1,0.4-0.3,0.4-0.6
				c2.5,0,4.9,0.2,7.6,0.6c-2.8,2-5.6,3.5-8.3,5.2c5-1.6,10.1-2.8,13.9-6.9c0.4,0,0.9,0,1.3,0C133.6,108.6,134.7,108.4,135.8,108.7z
				"/>
			<path class="st4" d="M178,116.8c-1.4,3.6-4.1,5.2-8,5.4c-6.7,0.3-12-2.2-16.1-7.3c-0.5-0.7-1.1-1.3-1.6-1.9
				c-1.3-1.6-2.7-3-4.6-3.9c0.3-0.3,0.7-0.2,1-0.2c0.5,0.2,1,0.2,1.5,0c3.8,3.5,8.6,5,13.4,6.5c0.2,0,0.3,0.1,0.5,0.1
				c-2.8-1.7-5.7-3.3-8.6-5.3c1.4-0.4,2.6-0.3,3.9-0.4c0.1,0.1,0.2,0.2,0.3,0.3c1.9,0.5,3.8,1,5.8,1.4c0.3,0.1,0.6,0.2,0.9,0.2
				c1.6,0.3,3.1,1.2,4.8,1.4c1.3,0.6,2.6,1.1,3.9,1.8C176,115.5,177.2,115.8,178,116.8z"/>
			<path class="st5" d="M158.1,158.8c-2.2,2-4.8,2.5-7.7,2.2c-1.4-0.2-2.8-0.7-4.1-1.2c-3.9-1.4-7.7-1.3-11.5,0.1
				c-1.8,0.7-3.6,1.3-5.5,1.2c-2.2-0.1-4.3-0.8-6-2.3c-0.9-0.8-1.4-1.7-1.6-2.8c-0.1-0.4,0-0.7,0.4-0.8c3.8-1.1,7.5-2.5,11.3-3.8
				c0.1,0,0.1,0,0.2,0c-0.1,1.9,1.2,3.3,2.6,3.4c3.4,0.3,6.8,0.4,10.2,0.8c3,0.4,6,0.8,8.9,1.7C156.3,157.7,157.3,158.1,158.1,158.8
				z"/>
			<path class="st5" d="M188,105.6c0.6-1.4,1.1-2.7,1.5-4.1c0.2-0.6,0.8-0.6,1.4-0.6c0.9,0.1,1.5,0.6,2,1.2c1.6,1.9,2.4,4.1,2.6,6.6
				c0.2,2.6-0.3,5.1-0.9,7.5c-0.7,3.2-1.4,6.5-1.8,9.7c-0.2,1.6-0.8,3.1-2,4.3c-0.9,0.8-1.9,0.9-2.9,0.4c-0.5-0.3-0.2-0.6-0.2-1
				c0.4-2.1,0.8-4.1,0.9-6.3c0.5,0.3,0.4,0.9,0.9,1.2c-0.4-5,0.5-9.7,2.5-14.2c0.5,1.5,0.2,3.1,0.6,4.6c0.2-3,0.6-5.9,0.3-8.9
				c-0.2-1.3-0.4-1.5-1.7-1.3C190.1,105.1,189.1,105.3,188,105.6z"/>
			<path class="st5" d="M89.4,115.3c0.2-1.6,0.1-3.2,0.3-4.8c0.5,0.1,0.5,0.6,0.7,0.9c1.2,3.7,2.2,7.3,2,11.3
				c-0.1,2.5,0,4.9,0.3,7.4c0,0.3,0.2,0.6-0.1,0.8c-0.3,0.2-0.7,0-0.9-0.2c-1.8-1.3-2.5-3.1-2.7-5.2c-0.3-2.8-1-5.6-1.5-8.4
				c-0.7-3.5-1.5-6.9-0.7-10.5c0.4-1.9,1.2-3.5,2.6-4.9c0.5-0.5,1.1-0.9,1.8-0.9c0.8,0,1.4,0.2,1.7,1.1c0.2,0.9,0.7,1.7,0.6,2.7
				c0,0.7-0.3,0.7-0.8,0.6c-0.7-0.2-1.4-0.3-2.2-0.4c-0.8-0.2-1.2,0.2-1.3,1c-0.2,1.2-0.3,2.5-0.2,3.7
				C89.1,111.5,88.9,113.4,89.4,115.3z"/>
			<path class="st6" d="M158.1,158.8c-0.8-0.8-1.8-1.1-2.8-1.4c-2.9-0.9-5.8-1.4-8.9-1.7c-3.4-0.4-6.8-0.4-10.2-0.8
				c-1.4-0.1-2.8-1.5-2.6-3.4c3.9-1.6,7.8-2.4,11.9-0.8c4,1.5,7.9,3.1,12,4.3c0.3,0.1,0.6,0.2,0.9,0.3c1.5,0.4,1.6,0.7,0.9,2.1
				C159,157.9,158.7,158.5,158.1,158.8z"/>
			<path class="st5" d="M112.7,111.3c-3.2,0.8-6.5,1.3-9.6,2.4c-1.1-3.3-1.6-6.7-1.7-10.1c0-0.9,0.4-1.6,1.3-1.9
				c1.2-0.5,2.3-1.1,3.5-1.5c2.7-0.9,5.2-0.4,7.3,1.6c0.4,0.4,0.9,0.8,1.6,1.4c-4.2,0.6-6.3,3.4-8.8,6c0.1,0.1,0.1,0.2,0.2,0.2
				c1.8,0.7,3.7,1.2,5.7,1.5C112.4,111,112.7,111,112.7,111.3z"/>
			<path class="st5" d="M171.1,113.2c-1.7-0.2-3.1-1-4.8-1.4c-0.3-0.1-0.6-0.2-0.9-0.2c0.1-0.6,0.6-0.4,1-0.4c2.7,0,5.2-1,7.7-1.9
				c0.2-0.1,0.5-0.1,0.5-0.2c0.1-0.3-0.2-0.4-0.4-0.5c-0.7-0.3-1.1-0.8-1.5-1.4c-1.4-2-3.4-3-5.7-3.7c-0.8-0.2-0.7-0.4-0.2-1
				c2.7-3.1,6.4-3.3,9.4-1.7c0.9,0.5,1.9,1,2.9,1.3c0.1,0,0.2,0,0.2,0c0-0.1-0.1-0.2-0.1-0.2c-0.5-1.2-1.5-2.2-2.4-3.2
				c1.4,0.9,2.5,2.1,3.1,3.6c-1.6,1.3-2.6,2.8-2.5,5c0.1,2.7-0.8,3-2.5,3.6C173.7,111.4,172.3,112.1,171.1,113.2z"/>
			<path class="st5" d="M135.8,108.7c-1.1-0.3-2.2-0.1-3.3-0.2c-0.4,0-0.9,0-1.3,0c1.4-2.2,2.6-4.5,2.8-7.2c0-0.4,0.3-0.4,0.6-0.4
				c2.2,0,4.4,0.1,6.6,0.1c-0.4,2.4-0.1,4.8-0.2,7.3C139.3,108.3,137.5,108.4,135.8,108.7z"/>
			<path class="st6" d="M171.1,113.2c1.2-1,2.6-1.7,4-2.2c1.7-0.6,2.6-0.9,2.5-3.6c-0.1-2.2,0.9-3.7,2.5-5c0.3,0.4,0.5,0.8,0.5,1.3
				c-0.1,4.5-0.7,8.9-2.5,13.1c0,0.1-0.1,0.1-0.1,0.1c-0.8-1-2-1.3-3-1.9C173.7,114.3,172.4,113.8,171.1,113.2z"/>
			<path class="st5" d="M150.2,109c-0.5,0.2-1,0.2-1.5,0c-0.3-0.1-0.7-0.2-1,0.2c-0.1,0-0.1,0-0.2-0.1c-0.1-0.1-0.1-0.3-0.2-0.4
				c-1.4-1.4-2.5-3.1-3.4-4.9c-0.4-0.8-0.8-1.7-0.6-2.6c1.1-0.3,2.3-0.1,3.5-0.2c0.2,0,0.4,0.1,0.4,0.3
				C147.3,104.1,148.6,106.6,150.2,109C150.2,108.9,150.2,108.9,150.2,109z"/>
			<path class="st6" d="M143.2,101.1c-0.2,1,0.2,1.8,0.6,2.6c0.9,1.8,2,3.4,3.4,4.9c0.1,0.1,0.2,0.3,0.2,0.4
				c-2.1-0.7-4.2-0.7-6.4-0.7c0.1-2.4-0.2-4.9,0.2-7.3C141.9,101,142.5,100.9,143.2,101.1z"/>
			<path class="st6" d="M174.1,109.3c-2.5,0.9-5,1.8-7.7,1.9c-0.3,0-0.8-0.2-1,0.4c-1.9-0.5-3.8-1-5.8-1.4c-0.1,0-0.2-0.2-0.3-0.3
				c2.6-0.4,5.3-0.4,7.9-0.4C169.6,109.4,171.9,109.3,174.1,109.3z"/>
			<path class="st6" d="M112.7,111.3c0-0.4-0.3-0.4-0.6-0.4c-2-0.3-3.8-0.8-5.7-1.5c-0.1,0-0.1-0.2-0.2-0.2c3.5,0.1,7,0.2,10.5,0.3
				c0.4,0,0.8,0.1,1.2,0.1c0,0.3-0.1,0.5-0.4,0.6C115.9,110.4,114.3,110.9,112.7,111.3z"/>
			<path class="st5" d="M162.5,146.2c2.4,2,4.8,4.1,7,6.3c2.5,2.5,3.6,5.6,4.1,8.9c-0.4-1.2-0.8-2.4-1.3-3.6c-1-2.6-2.8-4.6-4.8-6.5
				c-1.6-1.5-3.1-3-4.7-4.5C162.7,146.7,162.5,146.6,162.5,146.2L162.5,146.2z"/>
			<path class="st5" d="M118.7,146.7c-0.8,0.9-1.7,2-2.7,2.9c-3.6,3.3-6.9,6.8-7.7,12c0.4-2.7,1-5.3,2.6-7.4
				C113.1,151.2,116,149,118.7,146.7z"/>
			<path class="st5" d="M148.5,139.5c1.1-0.5,2.2-0.7,3.2-1.4c0.4-0.3,0.8-0.1,1.2,0.1c0.6,0.3,1.3,0.6,1.8,1
				c-2.1,0.2-4.2,0.4-6.3,0.6C148.5,139.7,148.5,139.6,148.5,139.5z"/>
			<path class="st5" d="M131.7,139.6c-1.9-0.3-3.6-0.5-5.4-0.7C127.8,137.7,129.2,137.9,131.7,139.6z"/>
			<path class="st5" d="M97.7,100.8c0-0.9,0.1-1.9,0-2.8c-0.1-0.8,0.3-0.9,0.9-0.6c0.4,0.1,0.9,0.1,1.3,0.4
				C99,98.8,98.4,99.8,97.7,100.8z"/>
			<path class="st5" d="M183.7,100c-0.6-0.9-1.1-1.5-1.5-2.2c0.5-0.2,1.2-0.5,1.4-0.3C184,98.1,183.7,98.9,183.7,100z"/>
			<path class="st5" d="M194.2,99.7c1.1-0.6,1.6,0.1,2.2,0.6C195.7,100.1,195,99.9,194.2,99.7z"/>
			<path class="st5" d="M162.5,146.2c-0.2,0.1-0.3,0-0.4-0.2l0,0C162.2,146.1,162.4,146.1,162.5,146.2
				C162.5,146.2,162.5,146.2,162.5,146.2z"/>
			<path class="st5" d="M162.1,146.1c0,0-0.1-0.1-0.1-0.1C162.1,145.9,162.1,146,162.1,146.1C162,146.1,162.1,146.1,162.1,146.1z"/>
			<path class="st5" d="M119.4,146.3c0,0,0-0.1,0.1-0.1C119.4,146.2,119.4,146.2,119.4,146.3C119.4,146.2,119.4,146.2,119.4,146.3
				L119.4,146.3z"/>
			<path class="st5" d="M119.4,146.3c0,0-0.1,0.1-0.1,0.1C119.2,146.2,119.3,146.3,119.4,146.3C119.4,146.3,119.4,146.3,119.4,146.3
				z"/>
			<path class="st2" d="M185.4,80.5c-0.1-0.4-0.5-0.3-0.8-0.4c-3.6-1-7.2-2.1-10.9-3.1c-2.2-0.6-4.1-1.7-5.8-3.2
				c-6.3-5.6-11.7-12-15.8-19.4c-1.3-2.4-2-4.9-2.1-7.6c-0.2-4.3-0.5-8.6-0.5-12.9c0.5,2.6,1.1,5.3,1.6,7.9
				c0.7,5.4,2.4,10.4,5.6,14.8c3.5,4.8,7.2,9.4,11.4,13.6c2.5,2.4,5.5,3.9,8.6,5.3c4.1,1.8,8.1,3.8,12.2,5.8
				c-0.9-0.2-1.7-0.4-2.6-0.6C186,80.4,185.7,80.3,185.4,80.5L185.4,80.5z"/>
			<path class="st2" d="M130.6,41.8c0.5-2.5,1.1-5.1,1.6-7.6c0,0,0.1,0,0.1,0c0,0.9,0,1.8,0,2.8c-0.2,4-0.4,8.1-0.7,12.1
				c-0.2,1.9-1,3.7-1.9,5.3c-4.3,7.6-9.8,14.2-16.4,19.9c-2.2,1.9-5,2.6-7.7,3.4c-3.2,0.9-6.3,1.8-9.5,2.7c-0.3,0.1-0.6,0.1-0.8,0.4
				c-0.7-0.2-1.3,0.6-2.1,0.2c5.2-2.4,10.4-4.8,15.5-7.2c1.8-0.8,3.3-2.1,4.7-3.5c5.4-5.1,10-10.9,13.8-17.3
				c1.6-2.7,2.4-5.6,2.9-8.6C130.3,43.5,130.5,42.6,130.6,41.8z"/>
			<path class="st4" d="M185.3,80.4c0.4-0.2,0.7,0,1,0.2C186,80.6,185.6,80.9,185.3,80.4z"/>
			<path class="st2" d="M145.1,136.5c-3.3,2-6.5,1.5-9.6,0.1C138.6,136.8,141.7,136.9,145.1,136.5z"/>
			<path class="st2" d="M179.4,101.9c0,0.1,0.1,0.2,0.1,0.2c-0.1,0-0.2,0-0.2,0C179.3,102,179.3,101.9,179.4,101.9z"/>
		</g>
	</g>
</g>
<path class="st7" d="M141.7,194c-11.2,0-22-2.2-32.2-6.5c-9.9-4.2-18.7-10.1-26.3-17.7s-13.6-16.5-17.7-26.3
	c-4.3-10.2-6.5-21.1-6.5-32.2s2.2-22,6.5-32.2c4.2-9.9,10.1-18.7,17.7-26.3C90.8,45,99.6,39,109.5,34.8c10.2-4.3,21.1-6.5,32.2-6.5
	c11.2,0,22,2.2,32.2,6.5c9.9,4.2,18.7,10.1,26.3,17.7c7.6,7.6,13.6,16.5,17.7,26.3c4.3,10.2,6.5,21.1,6.5,32.2s-2.2,22-6.5,32.2
	c-4.2,9.9-10.1,18.7-17.7,26.3s-16.5,13.6-26.3,17.7C163.8,191.8,152.9,194,141.7,194z M141.7,31.6c-43.9,0-79.6,35.7-79.6,79.6
	c0,43.9,35.7,79.6,79.6,79.6s79.6-35.7,79.6-79.6C221.3,67.3,185.6,31.6,141.7,31.6z"/>
<g>
	<g>
		<path class="st3" d="M87.9,255.3c-1.1,0-2-0.4-2.7-1.1s-1.1-1.6-1.1-2.7s0.4-2,1.1-2.7c0.7-0.7,1.6-1.1,2.7-1.1
			c1.3,0,2.3,0.5,2.9,1.6l-1.1,0.6c-0.2-0.3-0.4-0.6-0.8-0.8c-0.3-0.2-0.7-0.3-1.1-0.3c-0.7,0-1.3,0.2-1.8,0.7
			c-0.5,0.5-0.7,1.1-0.7,1.9s0.2,1.4,0.7,1.9c0.5,0.5,1.1,0.7,1.8,0.7c0.4,0,0.7-0.1,1.1-0.3c0.3-0.2,0.6-0.5,0.8-0.8l1.1,0.6
			C90.2,254.7,89.2,255.3,87.9,255.3z"/>
		<path class="st3" d="M98,255.1h-5v-7.3h5v1.1h-3.7v1.9H98v1.1h-3.7v2H98V255.1z"/>
		<path class="st3" d="M103.5,255.1h-1.3v-6.2H100v-1.1h5.7v1.1h-2.2V255.1z"/>
		<path class="st3" d="M107.9,247.8h1.3v2.7h1.9c0.7,0,1.3,0.2,1.8,0.7c0.4,0.4,0.6,1,0.6,1.6c0,0.7-0.2,1.2-0.6,1.6
			c-0.4,0.4-1,0.7-1.8,0.7h-3.2V247.8z M110.9,251.7h-1.8v2.3h1.8c0.4,0,0.7-0.1,0.9-0.3c0.2-0.2,0.4-0.5,0.4-0.8
			c0-0.4-0.1-0.6-0.4-0.8C111.6,251.8,111.3,251.7,110.9,251.7z"/>
		<path class="st3" d="M125.7,254.2c-0.7,0.7-1.6,1.1-2.7,1.1s-2-0.4-2.7-1.1s-1.1-1.6-1.1-2.7s0.4-2,1.1-2.7
			c0.7-0.7,1.6-1.1,2.7-1.1s2,0.4,2.7,1.1c0.7,0.7,1.1,1.6,1.1,2.7S126.4,253.5,125.7,254.2z M123,254.1c0.7,0,1.3-0.3,1.8-0.8
			c0.4-0.5,0.7-1.1,0.7-1.9c0-0.8-0.2-1.4-0.7-1.9c-0.4-0.5-1-0.7-1.8-0.7c-0.7,0-1.3,0.2-1.8,0.7c-0.4,0.5-0.7,1.1-0.7,1.9
			s0.2,1.4,0.7,1.9C121.7,253.9,122.2,254.1,123,254.1z"/>
		<path class="st3" d="M129.1,247.8h5v1.1h-3.7v1.6h1.9c0.7,0,1.3,0.2,1.8,0.7c0.4,0.4,0.6,1,0.6,1.6c0,0.7-0.2,1.2-0.6,1.6
			c-0.4,0.4-1,0.7-1.8,0.7h-3.2V247.8z M132.1,251.7h-1.8v2.3h1.8c0.4,0,0.7-0.1,0.9-0.3c0.2-0.2,0.4-0.5,0.4-0.8
			c0-0.4-0.1-0.6-0.4-0.8C132.8,251.8,132.5,251.7,132.1,251.7z"/>
		<path class="st3" d="M144.5,247.8h1.3v6.2h0.7v2.5h-1.3v-1.4h-8.3v-7.3h1.3v6.2h2.5v-6.2h1.3v6.2h2.5V247.8z"/>
		<path class="st3" d="M153.5,255.1h-5v-7.3h5v1.1h-3.7v1.9h3.7v1.1h-3.7v2h3.7V255.1z"/>
		<path class="st3" d="M156.8,255.1h-1.6l3.2-3.9l-3-3.5h1.6l2.6,3.2v-3.2h1.3v3.2l2.6-3.2h1.6l-3,3.5l3.2,3.9h-1.6l-2.5-3.1
			l-0.4,0.4v2.7h-1.3v-2.7l-0.4-0.4L156.8,255.1z"/>
		<path class="st3" d="M168.5,255.1h-1.2v-7.3h1.3v5.1l3.7-5.1h1.3v7.3h-1.3v-5.2L168.5,255.1z"/>
		<path class="st3" d="M179.3,255.1H178v-6.2h-2.2v-1.1h5.7v1.1h-2.2V255.1z"/>
		<path class="st3" d="M184.9,255.1h-1.2v-7.3h1.3v5.1l3.7-5.1h1.3v7.3h-1.3v-5.2L184.9,255.1z"/>
		<path class="st3" d="M193.9,255.1h-1.2v-7.3h1.3v5.1l3.7-5.1h1.3v7.3h-1.3v-5.2L193.9,255.1z M197.8,246.5c-0.5,0.6-1.1,1-1.9,1
			c-0.8,0-1.4-0.3-1.9-1l0.5-0.4c0.4,0.5,0.8,0.7,1.4,0.7c0.6,0,1-0.2,1.4-0.7L197.8,246.5z"/>
	</g>
	<g>
		<path class="st8" d="M52.2,216H48l-0.6-3.7c-0.5-0.5-1.2-1-2.1-1.3c-0.8-0.3-1.8-0.5-3-0.5c-2.4,0-4.3,0.9-5.6,2.6
			c-1.3,1.8-2,4-2,6.9v1c0,2.8,0.6,5.1,1.9,6.9c1.3,1.8,3.1,2.7,5.5,2.7c1.1,0,2.1-0.2,3-0.5c0.9-0.3,1.6-0.8,2.1-1.3l0.6-3.7h4.1
			v5.5c-1.1,1.3-2.5,2.3-4.3,3.1c-1.7,0.8-3.7,1.2-5.8,1.2c-3.7,0-6.8-1.3-9.2-3.9c-2.4-2.6-3.6-5.9-3.6-9.9v-0.9
			c0-4,1.2-7.4,3.6-9.9c2.4-2.6,5.4-3.9,9.2-3.9c2.2,0,4.1,0.4,5.8,1.2c1.7,0.8,3.2,1.8,4.3,3.1V216z"/>
		<path class="st8" d="M80.9,206.6v7.4h-4.3l-0.2-3.1h-5.1v19.6l3,0.6v3.3H62.7v-3.3l3-0.6v-19.6h-5.1l-0.2,3.1h-4.3v-7.4H80.9z"/>
		<path class="st8" d="M81.2,231.1l2-0.3l8.5-24.2h5.7l8.4,24.2l2,0.3v3.3h-9.5v-3.3l1.9-0.3l-1.2-3.8h-9l-1.2,3.8l1.9,0.3v3.3h-9.5
			V231.1z M91.3,222.8h6.4l-3.1-9.8h-0.1L91.3,222.8z"/>
		<path class="st8" d="M111.3,231.1l2.3-0.5l7.4-10.2l-7.2-9.9l-2.3-0.5v-3.4h10.7v3.4l-2.3,0.2l4.3,6.8l4.3-6.8l-2.2-0.2v-3.4h10.7
			v3.4l-2.3,0.5l-7.2,9.9l7.5,10.2l2.5,0.5v3.3h-10.9v-3.3l2.2-0.2l-4.5-7l-4.5,7l2.2,0.2v3.3h-10.7V231.1z"/>
		<path class="st8" d="M141.2,231.1l2-0.3l8.5-24.2h5.7l8.4,24.2l2,0.3v3.3h-9.5v-3.3l1.9-0.3l-1.2-3.8h-9l-1.2,3.8l1.9,0.3v3.3
			h-9.5V231.1z M151.3,222.8h6.4l-3.1-9.8h-0.1L151.3,222.8z"/>
		<path class="st8" d="M171.8,210v-3.4h11.5v3.4l-3,0.6v8h11.3v-8l-3-0.6v-3.4h3h5.6h3v3.4l-3,0.6v20l3,0.6v3.3h-11.5v-3.3l3-0.6
			v-7.6h-11.3v7.6l3,0.6v3.3h-11.5v-3.3l3-0.6v-20L171.8,210z"/>
		<path class="st8" d="M228,220.7c0,4.1-1.2,7.4-3.5,10.1c-2.3,2.7-5.4,4-9.1,4c-3.8,0-6.8-1.3-9.1-4c-2.3-2.7-3.5-6-3.5-10.1v-0.4
			c0-4,1.2-7.4,3.5-10.1c2.3-2.7,5.3-4,9.1-4c3.8,0,6.8,1.3,9.2,4c2.3,2.7,3.5,6,3.5,10.1V220.7z M222.4,220.3c0-2.9-0.6-5.2-1.8-7
			c-1.2-1.8-3-2.7-5.3-2.7c-2.3,0-4.1,0.9-5.2,2.7c-1.2,1.8-1.7,4.1-1.7,7v0.5c0,2.9,0.6,5.3,1.7,7.1s2.9,2.7,5.2,2.7
			c2.4,0,4.1-0.9,5.3-2.7s1.8-4.1,1.8-7.1V220.3z"/>
		<path class="st8" d="M242.7,206.6c3.3,0,5.8,0.6,7.7,1.9c1.8,1.3,2.7,3.2,2.7,5.7c0,1.3-0.3,2.4-1,3.4c-0.7,1-1.7,1.8-3,2.3
			c1.7,0.4,2.9,1.1,3.8,2.3c0.8,1.2,1.3,2.5,1.3,4.1c0,2.7-0.9,4.7-2.6,6c-1.8,1.4-4.2,2.1-7.5,2.1h-13.7v-3.3l3-0.6v-20l-3-0.6
			v-3.4h3H242.7z M238.9,218.3h4c1.5,0,2.6-0.3,3.4-0.9c0.8-0.6,1.2-1.5,1.2-2.7c0-1.3-0.4-2.2-1.2-2.8c-0.8-0.6-2-0.9-3.6-0.9h-3.8
			V218.3z M238.9,222.1v8h5.1c1.5,0,2.6-0.3,3.4-1c0.8-0.6,1.2-1.6,1.2-2.9c0-1.4-0.3-2.4-1-3.1c-0.7-0.7-1.7-1.1-3.1-1.1H238.9z"/>
	</g>
	<g>
		<path class="st9" d="M195.7,189.4h77.9c3.5,0,6.4,2.9,6.4,6.4v49.4c0,3.5-2.9,6.4-6.4,6.4h-63.8"/>
		<path class="st9" d="M70.6,251.6H9.8c-3.5,0-6.4-2.9-6.4-6.4v-49.4c0-3.5,2.9-6.4,6.4-6.4h79"/>
	</g>
</g>
</svg>
