<?xml version="1.0" encoding="utf-8"?>
<!-- Generator: Adobe Illustrator 22.0.1, SVG Export Plug-In . SVG Version: 6.00 Build 0)  -->
<svg version="1.1" id="Capa_1" xmlns="http://www.w3.org/2000/svg" xmlns:xlink="http://www.w3.org/1999/xlink" x="0px" y="0px"
	 viewBox="0 0 15 15" style="enable-background:new 0 0 15 15;" xml:space="preserve">
<style type="text/css">
	.st0{fill:#FFFFFF;}
</style>
<g>
	<g>
		<circle class="st0" cx="7.9" cy="1.4" r="1.2"/>
		<path class="st0" d="M8.3,3.2c-0.3-0.1-0.6-0.1-1,0C5.3,3.4,4.6,5.8,4.8,7.7c0.1,0.8,1.3,0.8,1.2,0C6,7,6,6,6.3,5.3
			c0,0.9,0,1.7,0,2.6c0,0,0,0.1,0,0.1c0,0,0,0,0,0c0,2.1,0,4.1-0.1,6.2c0,0.9,1.4,0.9,1.4,0c0.1-1.6,0.1-3.2,0.1-4.9
			c0.1,0,0.1,0,0.2,0C8,11,8,12.6,8,14.2c0,0.9,1.5,0.9,1.4,0C9.4,12.1,9.4,10.1,9.4,8c0-0.1,0-0.1,0-0.2c0-0.9,0-1.8,0-2.7
			C9.8,5.9,9.8,7,9.7,7.7c-0.1,0.8,1.2,0.8,1.2,0C11.2,5.8,10.5,3.3,8.3,3.2z"/>
	</g>
</g>
</svg>
