<?xml version="1.0" encoding="utf-8"?>
<!-- Generator: Adobe Illustrator 22.0.1, SVG Export Plug-In . SVG Version: 6.00 Build 0)  -->
<svg version="1.1" id="Capa_1" xmlns="http://www.w3.org/2000/svg" xmlns:xlink="http://www.w3.org/1999/xlink" x="0px" y="0px"
	 viewBox="0 0 15 15" style="enable-background:new 0 0 15 15;" xml:space="preserve">
<style type="text/css">
	.st0{fill:#FFFFFF;}
</style>
<g>
	<g>
		<path class="st0" d="M14.3,10.8c-0.1-0.2-0.4-0.2-0.6-0.2C13.2,10.9,12.6,11,12,11c-3,0-5.5-2.5-5.5-5.5C6.5,3.7,7.4,2,8.9,1
			c0.2-0.1,0.3-0.3,0.2-0.5S8.9,0.1,8.7,0.1C8.5,0.1,8.2,0,8,0C3.9,0,0.6,3.4,0.6,7.5S3.9,15,8,15c2.6,0,5-1.3,6.3-3.5
			C14.5,11.2,14.5,11,14.3,10.8z"/>
	</g>
</g>
</svg>
