<?xml version="1.0" encoding="utf-8"?>
<!-- Generator: Adobe Illustrator 22.0.1, SVG Export Plug-In . SVG Version: 6.00 Build 0)  -->
<svg version="1.1" id="Слой_1" xmlns="http://www.w3.org/2000/svg" xmlns:xlink="http://www.w3.org/1999/xlink" x="0px" y="0px"
	 viewBox="0 0 22 22" style="enable-background:new 0 0 22 22;" xml:space="preserve">
<style type="text/css">
	.st0{fill:#5A9F4E;}
</style>
<path class="st0" d="M21.1,9.2h-7.8c-0.3,0-0.5-0.2-0.5-0.5V0.9c0-0.6-0.4-0.9-0.9-0.9h-1.8C9.5,0,9.2,0.4,9.2,0.9v7.8
	C9.2,9,9,9.2,8.7,9.2H0.9C0.4,9.2,0,9.5,0,10.1v1.8c0,0.6,0.4,0.9,0.9,0.9h7.8c0.3,0,0.5,0.2,0.5,0.5v7.8c0,0.6,0.4,0.9,0.9,0.9h1.8
	c0.6,0,0.9-0.4,0.9-0.9v-7.8c0-0.3,0.2-0.5,0.5-0.5h7.8c0.6,0,0.9-0.4,0.9-0.9v-1.8C22,9.5,21.6,9.2,21.1,9.2z"/>
</svg>
