<svg id="BACKGROUND_2" xmlns="http://www.w3.org/2000/svg" viewBox="0 0 56.9 51">
    <style>
        .st0{fill:#6a6a6a}
    </style>
    <path class="st0" d="M4.7 3.3c0 .4-.3.7-.7.7s-.7-.3-.7-.7c0-.4.3-.7.7-.7s.7.3.7.7z"/>
    <path class="st0" d="M17 3.3c0 .4-.3.7-.7.7-.4 0-.7-.3-.7-.7 0-.4.3-.7.7-.7.4 0 .7.3.7.7z"/>
    <path class="st0" d="M29.4 3.3c0 .4-.3.7-.7.7-.4 0-.7-.3-.7-.7 0-.4.3-.7.7-.7.4 0 .7.3.7.7z"/>
    <path class="st0" d="M41.7 3.3c0 .4-.3.7-.7.7-.4 0-.7-.3-.7-.7 0-.4.3-.7.7-.7.4 0 .7.3.7.7z"/>
    <path class="st0" d="M54.1 3.3c0 .4-.3.7-.7.7-.4 0-.7-.3-.7-.7 0-.4.3-.7.7-.7.4 0 .7.3.7.7z"/>
    <g>
        <path class="st0" d="M4.7 14.4c0 .4-.3.7-.7.7s-.7-.3-.7-.7c0-.4.3-.7.7-.7s.7.3.7.7z"/>
        <path class="st0" d="M17 14.4c0 .4-.3.7-.7.7-.4 0-.7-.3-.7-.7 0-.4.3-.7.7-.7.4 0 .7.3.7.7z"/>
        <path class="st0" d="M29.4 14.4c0 .4-.3.7-.7.7-.4 0-.7-.3-.7-.7 0-.4.3-.7.7-.7.4 0 .7.3.7.7z"/>
        <path class="st0" d="M41.7 14.4c0 .4-.3.7-.7.7-.4 0-.7-.3-.7-.7 0-.4.3-.7.7-.7.4 0 .7.3.7.7z"/>
        <path class="st0" d="M54.1 14.4c0 .4-.3.7-.7.7-.4 0-.7-.3-.7-.7 0-.4.3-.7.7-.7.4 0 .7.3.7.7z"/>
    </g>
    <g>
        <path class="st0" d="M41.7 25.5c0 .4-.3.7-.7.7-.4 0-.7-.3-.7-.7 0-.4.3-.7.7-.7.4 0 .7.3.7.7z"/>
        <path class="st0" d="M54.1 25.5c0 .4-.3.7-.7.7-.4 0-.7-.3-.7-.7 0-.4.3-.7.7-.7.4 0 .7.3.7.7z"/>
    </g>
    <g>
        <path class="st0" d="M41.7 36.6c0 .4-.3.7-.7.7-.4 0-.7-.3-.7-.7 0-.4.3-.7.7-.7.4 0 .7.3.7.7z"/>
        <path class="st0" d="M54.1 36.6c0 .4-.3.7-.7.7-.4 0-.7-.3-.7-.7 0-.4.3-.7.7-.7.4 0 .7.3.7.7z"/>
    </g>
    <g>
        <path class="st0" d="M41.7 47.7c0 .4-.3.7-.7.7-.4 0-.7-.3-.7-.7 0-.4.3-.7.7-.7.4 0 .7.3.7.7z"/>
        <path class="st0" d="M54.1 47.7c0 .4-.3.7-.7.7-.4 0-.7-.3-.7-.7 0-.4.3-.7.7-.7.4 0 .7.3.7.7z"/>
    </g>
</svg>
