<svg id="BACKGROUND_2" xmlns="http://www.w3.org/2000/svg" viewBox="0 0 61.2 56">
    <style>
        .st0{fill:#fff}.st1{fill:#5a9f4e}
    </style>
    <path class="st0" d="M3.8 52.3c0-.4-.3-.7-.7-.7s-.7.3-.7.7c0 .4.3.7.7.7s.7-.3.7-.7z"/>
    <path class="st0" d="M16.2 52.3c0-.4-.3-.7-.7-.7-.4 0-.7.3-.7.7 0 .4.3.7.7.7.4 0 .7-.3.7-.7z"/>
    <path class="st0" d="M28.5 52.3c0-.4-.3-.7-.7-.7-.4 0-.7.3-.7.7 0 .4.3.7.7.7.4 0 .7-.3.7-.7z"/>
    <path class="st0" d="M40.9 52.3c0-.4-.3-.7-.7-.7-.4 0-.7.3-.7.7 0 .4.3.7.7.7.4 0 .7-.3.7-.7z"/>
    <path class="st0" d="M53.2 52.3c0-.4-.3-.7-.7-.7-.4 0-.7.3-.7.7 0 .4.3.7.7.7.4 0 .7-.3.7-.7z"/>
    <g>
        <path class="st0" d="M3.8 41.2c0-.4-.3-.7-.7-.7s-.7.3-.7.7c0 .4.3.7.7.7s.7-.3.7-.7z"/>
        <path class="st0" d="M16.2 41.2c0-.4-.3-.7-.7-.7-.4 0-.7.3-.7.7 0 .4.3.7.7.7.4 0 .7-.3.7-.7z"/>
        <path class="st0" d="M28.5 41.2c0-.4-.3-.7-.7-.7-.4 0-.7.3-.7.7 0 .4.3.7.7.7.4 0 .7-.3.7-.7z"/>
        <path class="st0" d="M40.9 41.2c0-.4-.3-.7-.7-.7-.4 0-.7.3-.7.7 0 .4.3.7.7.7.4 0 .7-.3.7-.7z"/>
        <path class="st0" d="M53.2 41.2c0-.4-.3-.7-.7-.7-.4 0-.7.3-.7.7 0 .4.3.7.7.7.4 0 .7-.3.7-.7z"/>
    </g>
    <g>
        <path class="st0" d="M3.8 30.1c0-.4-.3-.7-.7-.7s-.7.3-.7.7.3.7.7.7.7-.3.7-.7z"/>
        <path class="st0" d="M16.2 30.1c0-.4-.3-.7-.7-.7-.4 0-.7.3-.7.7s.3.7.7.7c.4 0 .7-.3.7-.7z"/>
        <path class="st0" d="M28.5 30.1c0-.4-.3-.7-.7-.7-.4 0-.7.3-.7.7s.3.7.7.7c.4 0 .7-.3.7-.7z"/>
        <path class="st0" d="M40.9 30.1c0-.4-.3-.7-.7-.7-.4 0-.7.3-.7.7 0 .4.3.7.7.7.4 0 .7-.3.7-.7z"/>
        <path class="st0" d="M53.2 30.1c0-.4-.3-.7-.7-.7-.4 0-.7.3-.7.7s.3.7.7.7c.4 0 .7-.3.7-.7z"/>
    </g>
    <g>
        <path class="st0" d="M3.8 19c0-.4-.3-.7-.7-.7s-.7.3-.7.7c0 .4.3.7.7.7s.7-.3.7-.7z"/>
        <path class="st0" d="M16.2 19c0-.4-.3-.7-.7-.7-.4 0-.7.3-.7.7 0 .4.3.7.7.7.4 0 .7-.3.7-.7z"/>
        <path class="st0" d="M28.5 19c0-.4-.3-.7-.7-.7-.4 0-.7.3-.7.7 0 .4.3.7.7.7.4 0 .7-.3.7-.7z"/>
        <path class="st0" d="M40.9 19c0-.4-.3-.7-.7-.7-.4 0-.7.3-.7.7 0 .4.3.7.7.7.4 0 .7-.3.7-.7z"/>
        <path class="st0" d="M53.2 19c0-.4-.3-.7-.7-.7-.4 0-.7.3-.7.7 0 .4.3.7.7.7.4 0 .7-.3.7-.7z"/>
    </g>
    <g>
        <path class="st0" d="M3.8 7.9c0-.4-.3-.7-.7-.7s-.7.3-.7.7c0 .4.3.7.7.7s.7-.3.7-.7z"/>
        <path class="st0" d="M16.2 7.9c0-.4-.3-.7-.7-.7-.4 0-.7.3-.7.7 0 .4.3.7.7.7.4 0 .7-.3.7-.7z"/>
        <path class="st0" d="M28.5 7.9c0-.4-.3-.7-.7-.7-.4 0-.7.3-.7.7 0 .4.3.7.7.7.4 0 .7-.3.7-.7z"/>
        <path class="st0" d="M40.9 7.9c0-.4-.3-.7-.7-.7-.4 0-.7.3-.7.7 0 .4.3.7.7.7.4 0 .7-.3.7-.7z"/>
        <path class="st0" d="M53.2 7.9c0-.4-.3-.7-.7-.7-.4 0-.7.3-.7.7 0 .4.3.7.7.7.4 0 .7-.3.7-.7z"/>
    </g>
    <path class="st1" d="M45.5.9h14v14h-14z"/>
</svg>
