<svg id="Layer_1" xmlns="http://www.w3.org/2000/svg" xmlns:xlink="http://www.w3.org/1999/xlink" viewBox="0 0 283.5 283.5">
    <style>
        .st0{clip-path:url(#SVGID_2_)}.st1{fill:#fefefe}.st2{fill:#212121}.st3{fill:#099f46}.st4{fill:#fcfcfc}.st5{fill:#c1c1c1}.st6{fill:#e1e1e1}.st7{fill:#08a046}.st8{fill:#fff}.st9{fill:none;stroke:#08a046;stroke-width:4;stroke-miterlimit:10}
    </style>
    <defs>
        <circle id="SVGID_1_" cx="141.7" cy="111.2" r="81.2"/>
    </defs>
    <use xlink:href="#SVGID_1_" overflow="visible" fill="#08a046"/>
    <clipPath id="SVGID_2_">
        <use xlink:href="#SVGID_1_" overflow="visible"/>
    </clipPath>
    <g class="st0">
        <path class="st1" d="M140.7 16.4h96.7c.8 0 .9.2.9.9v188c0 .8-.2.9-.9.9H44c-.8 0-.9-.2-.9-.9v-188c0-.8.2-.9.9-.9 32.2.1 64.5 0 96.7 0zM187 132.9c.4.2.8.3 1.2.5 1.9 1 3.9.3 5.1-1.4.9-1.2 1.5-2.6 1.7-4.1.6-3.9 1.3-7.9 1.9-11.8.1-.8.4-1.1 1.2-1.3 2.6-.9 5.1-1.9 7.2-3.8 1.8-1.7 2.9-3.7 2.1-6.3l-2.4-7.8c-.2-.7-.2-1.3-.1-2 .7-3.3 1-6.7 1.1-10.2.1-1.5-.4-2.8-1.3-3.9-.5-.6-.9-1.1-1.5-1.6-.5-.4-.6-.9-.7-1.5-.3-4-.8-8-1.8-12-1.9-7.9-5.2-15.1-10.9-21.1-4.3-4.5-9.2-8.1-14.5-11.3-5.3-3.2-11-5.7-16.9-7.7-2.1-.7-4.3-1.1-6.3-1.9-5.5-2.2-11.1-2.5-16.8-1.6-2.2.3-4.3 1.3-6.4 1.9-10 2.7-19.3 6.8-27.7 12.7-5.4 3.8-10.3 8.1-13.9 13.7-5.2 8.1-7.3 17.2-8 26.7-.1 1-.3 1.8-1.1 2.5-1.7 1.6-2.6 3.5-2.4 6 .3 3.2.5 6.4 1.1 9.5.1.5.1 1-.1 1.5-.8 2.5-1.6 5.1-2.5 7.6-.5 1.4-.4 2.7.3 4.1.6 1.3 1.5 2.3 2.6 3.2 2 1.6 4.3 2.5 6.7 3.3.5.2.8.4.9 1 .5 3 1 6.1 1.5 9.1.3 2 .5 4 1.4 5.9 1.5 2.9 3.2 3.6 6.2 2.5.5-.2.7-.1.8.4.2 1 .3 1.9.3 2.9-.1 7.6-1.1 15.1-1.6 22.6-.3 4.9-.6 9.8-.5 14.7.1 4.2 1.5 7.5 4.9 10l1.5 1.2c7.7 5.7 16.1 10.2 24.9 13.9 1.8.8 3.6 1.5 5.5 1.6 7.4.5 14.9.4 22.4.1 1.3-.1 2.6-.3 3.8-.7 6.6-2.5 12.8-6 18.8-9.8 3.8-2.4 7.5-5 10.7-8.2 1.2-1.3 2.1-2.8 2.4-4.5.4-2 .7-4 .7-6.1.2-6.3-.3-12.6-.9-18.9-.5-5.3-1.1-10.6-1.2-16 0-1.1.2-2.3.6-3.6z"/>
        <path class="st2" d="M187 132.9c-.4 1.2-.6 2.4-.6 3.6.1 5.4.7 10.7 1.2 16 .6 6.3 1.1 12.6.9 18.9-.1 2-.3 4.1-.7 6.1-.4 1.8-1.2 3.2-2.4 4.5-3.2 3.3-6.9 5.8-10.7 8.2-6 3.8-12.2 7.2-18.8 9.8-1.2.5-2.5.7-3.8.7-7.5.3-14.9.4-22.4-.1-2-.1-3.8-.9-5.5-1.6-8.8-3.7-17.2-8.2-24.9-13.9l-1.5-1.2c-3.4-2.5-4.8-5.8-4.9-10-.1-4.9.2-9.8.5-14.7.5-7.5 1.5-15 1.6-22.6 0-1 0-1.9-.3-2.9-.1-.5-.3-.6-.8-.4-3 1.1-4.7.3-6.2-2.5-1-1.9-1.1-3.9-1.4-5.9-.5-3-1-6.1-1.5-9.1-.1-.6-.4-.8-.9-1-2.4-.8-4.7-1.8-6.7-3.3-1.1-.9-2-1.9-2.6-3.2-.6-1.3-.8-2.6-.3-4.1.9-2.5 1.6-5.1 2.5-7.6.2-.5.2-1 .1-1.5-.6-3.1-.9-6.3-1.1-9.5-.2-2.5.7-4.4 2.4-6 .8-.7 1-1.5 1.1-2.5.7-9.5 2.8-18.5 8-26.7 3.6-5.6 8.5-9.9 13.9-13.7 8.4-5.9 17.7-10 27.7-12.7 2.1-.6 4.2-1.5 6.4-1.9 5.8-.9 11.4-.5 16.8 1.6 2 .8 4.2 1.2 6.3 1.9 5.9 1.9 11.6 4.5 16.9 7.7 5.3 3.2 10.2 6.8 14.5 11.3 5.7 6 9 13.2 10.9 21.1 1 3.9 1.5 7.9 1.8 12 0 .6.2 1.1.7 1.5.5.5 1 1.1 1.5 1.6.9 1.1 1.4 2.4 1.3 3.9-.1 3.4-.4 6.8-1.1 10.2-.1.7-.1 1.3.1 2 .8 2.6 1.7 5.2 2.4 7.8.7 2.6-.3 4.6-2.1 6.3-2.1 1.9-4.6 2.9-7.2 3.8-.7.2-1 .5-1.2 1.3-.6 4-1.3 7.9-1.9 11.8-.2 1.5-.8 2.9-1.7 4.1-1.2 1.6-3.2 2.4-5.1 1.4-.4-.2-.8-.3-1.2-.5zm-67.6 13.4c0-.1 0-.1 0 0l.1-.1c-.1 0-.1 0-.1.1-.1 0-.2-.1-.1.1 0-.1 0-.1.1-.1zm42.7-.2c0-.1.1-.2-.1-.1l.1.1c.1.1.3.2.5.1-.1.3.2.5.4.6 1.6 1.5 3.1 3 4.7 4.5 2 1.9 3.8 3.9 4.8 6.5.4 1.2.8 2.4 1.3 3.6-.6-3.3-1.6-6.5-4.1-8.9-2.2-2.2-4.6-4.3-7-6.3-.3-.1-.5-.1-.6-.1zm-14.7-37c.1 0 .1 0 .2.1 1.9.9 3.3 2.3 4.6 3.9.5.6 1.1 1.3 1.6 1.9 4.1 5.1 9.4 7.6 16.1 7.3 3.9-.2 6.5-1.8 8-5.4l.1-.1c1.8-4.2 2.4-8.6 2.5-13.1 0-.5-.1-.9-.5-1.3-.6-1.6-1.7-2.7-3.1-3.6.8 1 1.8 1.9 2.4 3.2l-.2.2c-1-.3-2-.8-2.9-1.3-3-1.6-6.7-1.4-9.4 1.7-.5.6-.5.7.2 1 2.2.7 4.3 1.8 5.7 3.7.4.6.8 1.2 1.5 1.4.2.1.5.2.4.5-.1.1-.3.1-.5.2-2.3 0-4.5.1-6.8.1-2.6.1-5.3 0-7.9.4-1.2.1-2.5 0-3.9.4 2.8 2 5.7 3.5 8.6 5.3-.2 0-.4 0-.5-.1-4.8-1.5-9.6-2.9-13.4-6.5v-.1c-1.6-2.3-2.9-4.7-3.1-7.6 0-.2-.2-.3-.4-.3-1.2.1-2.3-.1-3.5.2-.7-.2-1.3-.1-2 0-2.2 0-4.4-.1-6.6-.1-.3 0-.6 0-.6.4-.2 2.7-1.4 5-2.8 7.2-3.8 4.1-8.9 5.3-13.9 6.9 2.7-1.7 5.5-3.2 8.3-5.2-2.7-.3-5.1-.5-7.6-.6-.4 0-.8-.1-1.2-.1l-10.5-.3c2.4-2.5 4.6-5.4 8.8-6-.7-.7-1.2-1-1.6-1.4-2.1-2-4.5-2.6-7.3-1.6-1.2.4-2.3 1.1-3.5 1.5-.9.4-1.3 1-1.3 1.9.1 3.4.5 6.8 1.7 10.1.2 1.1.7 2.1 1.2 3.2 1.5 3.1 3.7 5 7.3 5.2 5.8.4 10.9-.9 14.9-5.3 1.1-1.2 2.2-2.5 3.3-3.8 1.7-1.9 3.4-3.8 6.1-4.3 1.7-.3 3.5-.4 5.2-.4 2.1-.2 4.2-.1 6.3.6zm-13.8 42.4h-.2c-3.8 1.2-7.5 2.7-11.3 3.8-.5.1-.5.4-.4.8.2 1.1.7 2.1 1.6 2.8 1.7 1.5 3.7 2.2 6 2.3 1.9.1 3.8-.5 5.5-1.2 3.8-1.4 7.7-1.5 11.5-.1 1.4.5 2.7 1 4.1 1.2 2.9.4 5.5-.1 7.7-2.2.6-.3.9-.9 1.2-1.5.7-1.4.6-1.7-.9-2.1l-.9-.3c-4.1-1.2-8.1-2.8-12-4.3-4.2-1.7-8-.8-11.9.8zm35.1-3.5c1.1-.6 2.2-1.5 3.2-2.3 1-.8 1.8-1.9 2.1-3.2.3-1.5.5-3 .6-4.5.2-2.2.6-4.4 2-6.3 1.7-2.2 3.2-4.6 4.8-6.9.3-.5.6-.9.8-1.5.9-2.8.9-5.7 1.1-8.5-.5 1.1-.8 2.2-1.3 3.3-1.9 4.3-4.8 7.5-9.8 8-5.1.5-10 .1-14.5-2.6-3.2-1.8-5.7-4.4-7.9-7.3-2.2-2.9-4.9-4.2-8.5-3.7h-.2c-.9-.1-1.9-.1-2.8 0-1.8.1-3.2.7-4.4 2.1-1 1.2-2 2.3-3 3.5-2 2.3-4.2 4.4-6.9 5.8-4.4 2.3-9.1 2.7-13.9 2.1-3.7-.4-6.3-2.3-8.3-5.3-1.6-2.5-2.5-5.2-3.2-8-.1-.6-.1-1.2-.5-1.8.1 3.1.2 6.2.6 9.2.2 1.6.4 3.3 1.4 4.7 1.7 2.5 3.4 5 5.2 7.4 1 1.4 1.4 2.8 1.6 4.4.1.8.2 1.6.2 2.4.2 3.1 1.2 5.9 3.9 7.8.5.4 1 .8 1.4 1.2.4.4 1 .7 1.6.2 2.9-2.4 5.6-5.1 8.3-7.7 1.7-1.6 3.3-3.3 5.1-4.9.7-.7 1.5-1.3 2.2-2.1.6-.7 1.3-1.4 2.1-1.9 0 .2-.2.4-.3.6-.6 1.3-1.3 2.6-1.5 4.1-.1.5.2.7.6.7.3 0 .8.4.9 0 .1-1.4.8-.5 1.2-.3 1.9.6 3.5 1.8 5.5 1.9 3.1.2 6.1.3 8.9-1.3.7-.4 1.4-.6 2.1-.9.2-.1.4-.3.5 0 .3 1 .9.2 1.2.1.5-.1.2-.6.2-.9-.2-.7-.5-1.4-.7-2.1-.3-.7-.6-1.4-1-2.1 2.1 1.5 3.7 3.3 5.5 4.9l12.9 11.4c.3.8.6.8 1 .3zM84 77.3c-.1.2-.2.3-.1.5.5 2.4-.9 3.9-2.6 5.3-.8.6-1 1.5-.9 2.4.3 3.2.5 6.4 1.2 9.6.3 1.5-.1 2.4-1.3 3.3-1.6 1.2-3 2.6-3.8 4.5-1 2.5-.8 5.1 1.1 6.8.2-.4-.2-.7-.3-1-.4-1-.7-2-.5-3.2.5-2.5 2.2-4.1 4.2-5.5 5.8-4.1 12.4-6.4 19.3-8 6-1.4 12.1-2.4 18.2-2.9 5.1-.4 10.1-.8 15.2-.9 9.8-.1 19.7-.1 29.5.9 3.5.4 7 .7 10.4 1.3 4.5.8 8.9 1.7 13.2 3.1 5.2 1.7 10.2 3.7 14.5 7.2 2.1 1.7 3.6 3.7 3 6.6-.1.8-.5 1.4-.9 2.2.6-.2.9-.7 1.2-1.1.9-1.5.9-3.1.4-4.7-.6-2.4-2.4-4-4.1-5.5-.9-.8-1.2-1.7-.9-2.8.7-3.5 1.2-6.9 1.2-10.5 0-.6-.1-1.1-.6-1.6-1.4-1.4-3.3-2.6-2.7-5-.3-3.6-.7-7.2-1.5-10.7-1.6-7.1-4.3-13.6-9.3-19-4.4-4.8-9.6-8.6-15.2-11.8-4.6-2.6-9.4-4.7-14.3-6.4-2.3-.8-4.7-1.2-6.9-2.1-4.7-1.9-9.5-2.1-14.4-1.5-2 .3-3.8 1.2-5.7 1.7-9.3 2.5-18 6.2-26 11.7-4.7 3.2-9.1 6.8-12.4 11.5-3.7 5.3-5.9 11.2-7.1 17.5-.6 2.7-1 5.4-1.1 8.1zm94.2 16.1c-2.2-.5-4.4-1-6.7-1.4-5-.9-10-1.4-15-1.7-4.7-.3-9.4-.1-14.1-.1-10.5-.1-21-.2-31.5 1.7-2.5.5-5.1.9-7.5 1.6 24.9 3.8 49.9 3.7 74.8-.1zm9.8 12.2c1.1-.2 2.1-.5 3-.6 1.3-.2 1.6 0 1.7 1.3.4 3 0 5.9-.3 8.9-.4-1.5-.1-3.1-.6-4.6-2 4.5-2.9 9.2-2.5 14.2-.4-.4-.4-.9-.9-1.2-.1 2.2-.5 4.2-.9 6.3-.1.3-.3.7.2 1 1.1.6 2.1.5 2.9-.4 1.2-1.2 1.8-2.6 2-4.3.4-3.3 1.1-6.5 1.8-9.7.5-2.5 1-5 .9-7.5-.2-2.5-.9-4.7-2.6-6.6-.5-.6-1.1-1.2-2-1.2-.5 0-1.2-.1-1.4.6-.2 1-.7 2.3-1.3 3.8zm-98.6 9.7c-.5-1.9-.3-3.8-.5-5.8-.1-1.2 0-2.5.2-3.7.1-.8.5-1.1 1.3-1 .7.1 1.5.2 2.2.4.6.2.8.1.8-.6.1-1-.4-1.8-.6-2.7-.2-.9-.9-1.1-1.7-1.1-.7 0-1.3.4-1.8.9-1.4 1.4-2.2 3-2.6 4.9-.8 3.6 0 7 .7 10.5.6 2.8 1.3 5.5 1.5 8.4.2 2 .9 3.9 2.7 5.2.3.2.6.4.9.2.3-.2.2-.6.1-.8-.2-2.5-.4-4.9-.3-7.4.2-3.9-.8-7.6-2-11.3-.1-.3-.2-.8-.7-.9-.2 1.7-.1 3.3-.2 4.8zm29.3 31.4c-2.6 2.3-5.5 4.5-7.8 7.4-1.7 2.1-2.3 4.7-2.6 7.4.8-5.1 4.1-8.6 7.7-12 .9-.9 1.8-1.9 2.7-2.8zm29.8-7.2v.3l6.3-.6c-.6-.5-1.2-.8-1.8-1-.4-.2-.8-.3-1.2-.1-1 .7-2.2 1-3.3 1.4zm-16.8.1c-2.5-1.8-4-1.9-5.4-.7 1.8.3 3.5.5 5.4.7zm-34-38.8c.7-1 1.4-2.1 2.1-3.1-.4-.3-.9-.2-1.3-.4-.6-.2-.9-.1-.9.6.1 1.1.1 2 .1 2.9zm86-.8c-.1-1 .2-1.8-.2-2.5-.1-.2-.9 0-1.4.3.6.6 1 1.3 1.6 2.2zm10.5-.3c.9.2 1.5.4 2.2.6-.6-.5-1.2-1.2-2.2-.6z"/>
        <path class="st3" d="M197.9 78.3c-.5 2.4 1.3 3.6 2.7 5 .5.5.6 1 .6 1.6 0 3.5-.5 7-1.2 10.5-.2 1.1.1 2 .9 2.8 1.7 1.6 3.5 3.1 4.1 5.5.4 1.6.5 3.2-.4 4.7-.3.4-.5.9-1.2 1.1.4-.8.8-1.5.9-2.2.6-2.9-1-4.9-3-6.6-4.3-3.5-9.3-5.5-14.5-7.2-4.3-1.4-8.7-2.4-13.2-3.1-3.4-.6-6.9-.9-10.4-1.3-9.8-1-19.7-1.1-29.5-.9-5.1.1-10.1.5-15.2.9-6.1.5-12.2 1.5-18.2 2.9-6.9 1.6-13.5 3.9-19.3 8-2 1.4-3.6 3-4.2 5.5-.2 1.2.1 2.2.5 3.2.1.3.5.6.3 1-1.9-1.7-2.1-4.3-1.1-6.8.8-1.9 2.2-3.3 3.8-4.5 1.1-.9 1.6-1.8 1.3-3.3-.7-3.1-1-6.4-1.2-9.6-.1-1 .1-1.8.9-2.4 1.7-1.3 3-2.9 2.6-5.3 0-.1.1-.3.1-.5.4-1.1.8-2.3 1.2-3.4 1.6-3.8 3.5-7.3 6.1-10.6 2.6-3.3 5.6-6.1 8.8-8.7 3.7-2.9 7.8-5.2 12-7.1 5.9-2.7 12.1-4.5 18.5-5.8-.2.9-.3 1.7-.5 2.6-.5 3-1.3 6-2.9 8.6-3.8 6.4-8.4 12.2-13.8 17.3-1.4 1.4-2.9 2.6-4.7 3.5-5.2 2.4-10.3 4.8-15.5 7.2.8.4 1.4-.4 2.1-.2.9-.2 1.8-.3 2.7-.5 3.9-.7 7.8-1.5 11.7-2.2 1.7-.3 3.5-.5 5-1.5 2.6-1.7 5-3.6 7.2-5.8 2.1-2 4-4.2 5.8-6.4 1.9-2.5 3.7-5 4.9-7.9.4-1 .9-2 1.7-2.9.9-1 1.8-1.7 3.3-1.6 2.1.1 4.2.1 6.3 0 2.1-.1 3.4 1 4.3 2.7 1 2 1.8 4.1 3 5.9 3.6 5.5 8.1 10.2 13.3 14.2 1.6 1.3 3.4 2.5 5.5 2.9 3.3.6 6.6 1.3 9.9 1.9 1.8.3 3.5.9 5.3.9.3.5.7.1 1 .2.9.2 1.7.4 2.6.6-4-2-8.1-3.9-12.2-5.8-3.1-1.4-6.2-2.8-8.6-5.3-4.3-4.2-8-8.8-11.4-13.6-3.2-4.5-5-9.4-5.6-14.8.6 0 1.2.1 1.9.2 3.3.7 6.6 1.6 9.8 2.8 2 .8 3.9 1.8 5.9 2.5 4.6 1.8 8.7 4.5 12.6 7.5 2.7 2.1 5.1 4.5 7.3 7 1.4 1.6 2.7 3.4 3.8 5.2 2.1 3.4 3.9 7 5.2 10.8.1.4.1.6.4.6z"/>
        <path class="st4" d="M197.9 78.3c-.3 0-.3-.2-.3-.4-1.3-3.8-3.1-7.4-5.2-10.8-1.1-1.8-2.4-3.5-3.8-5.2-2.2-2.6-4.6-5-7.3-7-3.9-3-8-5.7-12.6-7.5-2-.8-3.9-1.8-5.9-2.5-3.2-1.2-6.5-2.1-9.8-2.8-.6-.1-1.2-.3-1.9-.2-.5-2.6-1.1-5.3-1.6-7.9.1 4.3.4 8.6.5 12.9.1 2.7.8 5.3 2.1 7.6 4.2 7.4 9.5 13.8 15.8 19.4 1.7 1.5 3.6 2.6 5.8 3.2 3.6 1 7.3 2 10.9 3.1.3.1.7 0 .8.4-1.8 0-3.6-.5-5.3-.9-3.3-.6-6.6-1.3-9.9-1.9-2.1-.4-3.9-1.6-5.5-2.9-5.2-4-9.7-8.7-13.3-14.2-1.2-1.9-2-4-3-5.9-.9-1.7-2.1-2.8-4.3-2.7-2.1.1-4.2.1-6.3 0-1.5-.1-2.5.6-3.3 1.6-.7.9-1.2 1.9-1.7 2.9-1.2 2.9-3 5.4-4.9 7.9-1.8 2.3-3.8 4.4-5.8 6.4-2.2 2.1-4.6 4.1-7.2 5.8-1.5 1-3.3 1.2-5 1.5-3.9.7-7.8 1.5-11.7 2.2-.9.2-1.8.3-2.7.5.2-.3.5-.3.8-.4 3.2-.9 6.3-1.8 9.5-2.7 2.7-.8 5.5-1.4 7.7-3.4 6.6-5.7 12.1-12.3 16.4-19.9.9-1.7 1.7-3.4 1.9-5.3.4-4 .5-8.1.7-12.1v-2.8h-.1c-.5 2.5-1.1 5.1-1.6 7.6-6.3 1.3-12.5 3.1-18.5 5.8-4.3 1.9-8.3 4.2-12 7.1-3.3 2.5-6.3 5.3-8.8 8.7-2.5 3.3-4.5 6.8-6.1 10.6-.5 1.1-.8 2.2-1.2 3.4.1-2.7.5-5.5 1-8.1 1.2-6.3 3.3-12.2 7.1-17.5 3.3-4.7 7.7-8.3 12.4-11.5 8-5.4 16.7-9.2 26-11.7 1.9-.5 3.7-1.4 5.7-1.7 4.9-.7 9.7-.4 14.4 1.5 2.2.9 4.6 1.3 6.9 2.1 5 1.7 9.7 3.8 14.3 6.4 5.6 3.2 10.8 7 15.2 11.8 5 5.4 7.7 12 9.3 19 .7 3.3 1.1 6.9 1.4 10.5z"/>
        <path class="st5" d="M168.7 148c-.4.5-.7.5-1.2.1-4.3-3.8-8.6-7.7-12.9-11.4-1.9-1.6-3.5-3.5-5.5-4.9.3.7.7 1.4 1 2.1.3.7.5 1.4.7 2.1.1.3.4.8-.2.9-.4.1-.9.9-1.2-.1-.1-.3-.3-.1-.5 0-.7.3-1.5.5-2.1.9-2.8 1.5-5.8 1.5-8.9 1.3-2-.1-3.7-1.3-5.5-1.9-.4-.1-1.1-1-1.2.3 0 .3-.6 0-.9 0-.4-.1-.6-.2-.6-.7.2-1.5.9-2.8 1.5-4.1l.3-.6c-.8.5-1.5 1.1-2.1 1.9-.6.8-1.4 1.4-2.2 2.1-1.7 1.6-3.4 3.3-5.1 4.9-2.7 2.6-5.4 5.3-8.3 7.7-.6.5-1.2.2-1.6-.2-.5-.4-.9-.9-1.4-1.2-2.7-1.9-3.7-4.6-3.9-7.8-.1-.8-.2-1.6-.2-2.4-.2-1.6-.6-3.1-1.6-4.4-1.8-2.4-3.4-4.9-5.2-7.4-1-1.4-1.2-3-1.4-4.7-.4-3-.5-6.1-.6-9.2.4.6.4 1.2.5 1.8.7 2.8 1.6 5.6 3.2 8 2 3 4.6 4.9 8.3 5.3 4.9.5 9.5.2 13.9-2.1 2.7-1.4 4.9-3.5 6.9-5.8 1-1.2 2-2.3 3-3.5 1.1-1.4 2.6-2 4.4-2.1.9 0 1.9-.1 2.8 0 .1 2.3.1 4.7.1 7 .1 3.9.6 7.7.7 11.5 0 .9.3 1.8.8 2.6.7 1 1.6 1.5 2.7 1.3 1.1-.2 1.6-1 1.8-2 .2-.6.1-1.1.1-1.8-.1-1.1-.5-2.1-.6-3.2 4.1 2.7 8.6 4.4 12.9 6.4 2.3 1.1 4.6 2 6.3 4.1 2.4 2.5 3.3 5.6 3 9.2zm-23.6-11.5c-3.3.5-6.5.3-9.6.1 3.1 1.4 6.3 1.9 9.6-.1z"/>
        <path class="st6" d="M168.7 148c.4-3.5-.5-6.7-2.8-9.4-1.6-2-4-3-6.3-4.1-4.3-2-8.8-3.7-12.9-6.4.1 1.1.5 2.1.6 3.2.1.6.1 1.2-.1 1.8-.3 1-.7 1.8-1.8 2-1.2.2-2.1-.3-2.7-1.3-.5-.8-.8-1.7-.8-2.6-.1-3.9-.6-7.7-.7-11.5 0-2.3-.1-4.7-.1-7h.2c3.6-.5 6.3.8 8.5 3.7 2.2 2.9 4.7 5.5 7.9 7.3 4.5 2.6 9.4 3.1 14.5 2.6 5-.5 7.9-3.7 9.8-8 .5-1.1.9-2.2 1.3-3.3-.2 2.9-.2 5.7-1.1 8.5-.2.6-.5 1-.8 1.5-1.6 2.3-3.1 4.7-4.8 6.9-1.5 1.9-1.8 4-2 6.3-.2 1.5-.3 3-.6 4.5-.3 1.3-1.1 2.4-2.1 3.2-1.1.6-2.1 1.4-3.2 2.1z"/>
        <path class="st5" d="M178.2 93.4c-24.9 3.8-49.9 3.9-74.8.1 2.5-.7 5-1.1 7.5-1.6 10.4-1.9 20.9-1.7 31.5-1.7 4.7 0 9.4-.2 14.1.1 5 .3 10 .9 15 1.7 2.3.4 4.5.9 6.7 1.4z"/>
        <path class="st4" d="M135.8 108.7c-2.7.5-4.4 2.4-6.1 4.3-1.1 1.3-2.1 2.6-3.3 3.8-4 4.4-9.1 5.7-14.9 5.3-3.6-.2-5.8-2.1-7.3-5.2-.5-1-1-2.1-1.2-3.2 3.1-1.1 6.4-1.6 9.6-2.4 1.6-.4 3.2-.9 4.8-1.2.4-.1.4-.3.4-.6 2.5 0 4.9.2 7.6.6-2.8 2-5.6 3.5-8.3 5.2 5-1.6 10.1-2.8 13.9-6.9h1.3c1.3.2 2.4 0 3.5.3z"/>
        <path class="st4" d="M178 116.8c-1.4 3.6-4.1 5.2-8 5.4-6.7.3-12-2.2-16.1-7.3-.5-.7-1.1-1.3-1.6-1.9-1.3-1.6-2.7-3-4.6-3.9.3-.3.7-.2 1-.2.5.2 1 .2 1.5 0 3.8 3.5 8.6 5 13.4 6.5.2 0 .3.1.5.1-2.8-1.7-5.7-3.3-8.6-5.3 1.4-.4 2.6-.3 3.9-.4l.3.3c1.9.5 3.8 1 5.8 1.4.3.1.6.2.9.2 1.6.3 3.1 1.2 4.8 1.4 1.3.6 2.6 1.1 3.9 1.8.9.6 2.1.9 2.9 1.9z"/>
        <path class="st5" d="M158.1 158.8c-2.2 2-4.8 2.5-7.7 2.2-1.4-.2-2.8-.7-4.1-1.2-3.9-1.4-7.7-1.3-11.5.1-1.8.7-3.6 1.3-5.5 1.2-2.2-.1-4.3-.8-6-2.3-.9-.8-1.4-1.7-1.6-2.8-.1-.4 0-.7.4-.8 3.8-1.1 7.5-2.5 11.3-3.8h.2c-.1 1.9 1.2 3.3 2.6 3.4 3.4.3 6.8.4 10.2.8 3 .4 6 .8 8.9 1.7 1 .4 2 .8 2.8 1.5z"/>
        <path class="st5" d="M188 105.6c.6-1.4 1.1-2.7 1.5-4.1.2-.6.8-.6 1.4-.6.9.1 1.5.6 2 1.2 1.6 1.9 2.4 4.1 2.6 6.6.2 2.6-.3 5.1-.9 7.5-.7 3.2-1.4 6.5-1.8 9.7-.2 1.6-.8 3.1-2 4.3-.9.8-1.9.9-2.9.4-.5-.3-.2-.6-.2-1 .4-2.1.8-4.1.9-6.3.5.3.4.9.9 1.2-.4-5 .5-9.7 2.5-14.2.5 1.5.2 3.1.6 4.6.2-3 .6-5.9.3-8.9-.2-1.3-.4-1.5-1.7-1.3-1.1.4-2.1.6-3.2.9z"/>
        <path class="st5" d="M89.4 115.3c.2-1.6.1-3.2.3-4.8.5.1.5.6.7.9 1.2 3.7 2.2 7.3 2 11.3-.1 2.5 0 4.9.3 7.4 0 .3.2.6-.1.8-.3.2-.7 0-.9-.2-1.8-1.3-2.5-3.1-2.7-5.2-.3-2.8-1-5.6-1.5-8.4-.7-3.5-1.5-6.9-.7-10.5.4-1.9 1.2-3.5 2.6-4.9.5-.5 1.1-.9 1.8-.9.8 0 1.4.2 1.7 1.1.2.9.7 1.7.6 2.7 0 .7-.3.7-.8.6-.7-.2-1.4-.3-2.2-.4-.8-.2-1.2.2-1.3 1-.2 1.2-.3 2.5-.2 3.7.1 2-.1 3.9.4 5.8z"/>
        <path class="st6" d="M158.1 158.8c-.8-.8-1.8-1.1-2.8-1.4-2.9-.9-5.8-1.4-8.9-1.7-3.4-.4-6.8-.4-10.2-.8-1.4-.1-2.8-1.5-2.6-3.4 3.9-1.6 7.8-2.4 11.9-.8 4 1.5 7.9 3.1 12 4.3l.9.3c1.5.4 1.6.7.9 2.1-.3.5-.6 1.1-1.2 1.4z"/>
        <path class="st5" d="M112.7 111.3c-3.2.8-6.5 1.3-9.6 2.4-1.1-3.3-1.6-6.7-1.7-10.1 0-.9.4-1.6 1.3-1.9 1.2-.5 2.3-1.1 3.5-1.5 2.7-.9 5.2-.4 7.3 1.6.4.4.9.8 1.6 1.4-4.2.6-6.3 3.4-8.8 6 .1.1.1.2.2.2 1.8.7 3.7 1.2 5.7 1.5.2.1.5.1.5.4z"/>
        <path class="st5" d="M171.1 113.2c-1.7-.2-3.1-1-4.8-1.4-.3-.1-.6-.2-.9-.2.1-.6.6-.4 1-.4 2.7 0 5.2-1 7.7-1.9.2-.1.5-.1.5-.2.1-.3-.2-.4-.4-.5-.7-.3-1.1-.8-1.5-1.4-1.4-2-3.4-3-5.7-3.7-.8-.2-.7-.4-.2-1 2.7-3.1 6.4-3.3 9.4-1.7.9.5 1.9 1 2.9 1.3h.2c0-.1-.1-.2-.1-.2-.5-1.2-1.5-2.2-2.4-3.2 1.4.9 2.5 2.1 3.1 3.6-1.6 1.3-2.6 2.8-2.5 5 .1 2.7-.8 3-2.5 3.6-1.2.5-2.6 1.2-3.8 2.3z"/>
        <path class="st5" d="M135.8 108.7c-1.1-.3-2.2-.1-3.3-.2h-1.3c1.4-2.2 2.6-4.5 2.8-7.2 0-.4.3-.4.6-.4 2.2 0 4.4.1 6.6.1-.4 2.4-.1 4.8-.2 7.3-1.7 0-3.5.1-5.2.4z"/>
        <path class="st6" d="M171.1 113.2c1.2-1 2.6-1.7 4-2.2 1.7-.6 2.6-.9 2.5-3.6-.1-2.2.9-3.7 2.5-5 .3.4.5.8.5 1.3-.1 4.5-.7 8.9-2.5 13.1 0 .1-.1.1-.1.1-.8-1-2-1.3-3-1.9-1.3-.7-2.6-1.2-3.9-1.8z"/>
        <path class="st5" d="M150.2 109c-.5.2-1 .2-1.5 0-.3-.1-.7-.2-1 .2-.1 0-.1 0-.2-.1s-.1-.3-.2-.4c-1.4-1.4-2.5-3.1-3.4-4.9-.4-.8-.8-1.7-.6-2.6 1.1-.3 2.3-.1 3.5-.2.2 0 .4.1.4.3.1 2.8 1.4 5.3 3 7.7 0-.1 0-.1 0 0z"/>
        <path class="st6" d="M143.2 101.1c-.2 1 .2 1.8.6 2.6.9 1.8 2 3.4 3.4 4.9.1.1.2.3.2.4-2.1-.7-4.2-.7-6.4-.7.1-2.4-.2-4.9.2-7.3.7 0 1.3-.1 2 .1z"/>
        <path class="st6" d="M174.1 109.3c-2.5.9-5 1.8-7.7 1.9-.3 0-.8-.2-1 .4-1.9-.5-3.8-1-5.8-1.4-.1 0-.2-.2-.3-.3 2.6-.4 5.3-.4 7.9-.4 2.4-.1 4.7-.2 6.9-.2z"/>
        <path class="st6" d="M112.7 111.3c0-.4-.3-.4-.6-.4-2-.3-3.8-.8-5.7-1.5-.1 0-.1-.2-.2-.2l10.5.3c.4 0 .8.1 1.2.1 0 .3-.1.5-.4.6-1.6.2-3.2.7-4.8 1.1z"/>
        <path class="st5" d="M162.5 146.2c2.4 2 4.8 4.1 7 6.3 2.5 2.5 3.6 5.6 4.1 8.9-.4-1.2-.8-2.4-1.3-3.6-1-2.6-2.8-4.6-4.8-6.5-1.6-1.5-3.1-3-4.7-4.5-.1-.1-.3-.2-.3-.6z"/>
        <path class="st5" d="M118.7 146.7c-.8.9-1.7 2-2.7 2.9-3.6 3.3-6.9 6.8-7.7 12 .4-2.7 1-5.3 2.6-7.4 2.2-3 5.1-5.2 7.8-7.5z"/>
        <path class="st5" d="M148.5 139.5c1.1-.5 2.2-.7 3.2-1.4.4-.3.8-.1 1.2.1.6.3 1.3.6 1.8 1l-6.3.6c.1-.1.1-.2.1-.3z"/>
        <path class="st5" d="M131.7 139.6c-1.9-.3-3.6-.5-5.4-.7 1.5-1.2 2.9-1 5.4.7z"/>
        <path class="st5" d="M97.7 100.8c0-.9.1-1.9 0-2.8-.1-.8.3-.9.9-.6.4.1.9.1 1.3.4-.9 1-1.5 2-2.2 3z"/>
        <path class="st5" d="M183.7 100c-.6-.9-1.1-1.5-1.5-2.2.5-.2 1.2-.5 1.4-.3.4.6.1 1.4.1 2.5z"/>
        <path class="st5" d="M194.2 99.7c1.1-.6 1.6.1 2.2.6-.7-.2-1.4-.4-2.2-.6z"/>
        <path class="st5" d="M162.5 146.2c-.2.1-.3 0-.4-.2.1.1.3.1.4.2z"/>
        <path class="st5" d="M162.1 146.1l-.1-.1c.1-.1.1 0 .1.1-.1 0 0 0 0 0z"/>
        <path class="st5" d="M119.4 146.3s0-.1.1-.1c-.1 0-.1 0-.1.1 0-.1 0-.1 0 0z"/>
        <path class="st5" d="M119.4 146.3l-.1.1c-.1-.2 0-.1.1-.1z"/>
        <path class="st2" d="M185.4 80.5c-.1-.4-.5-.3-.8-.4-3.6-1-7.2-2.1-10.9-3.1-2.2-.6-4.1-1.7-5.8-3.2-6.3-5.6-11.7-12-15.8-19.4-1.3-2.4-2-4.9-2.1-7.6-.2-4.3-.5-8.6-.5-12.9.5 2.6 1.1 5.3 1.6 7.9.7 5.4 2.4 10.4 5.6 14.8 3.5 4.8 7.2 9.4 11.4 13.6 2.5 2.4 5.5 3.9 8.6 5.3 4.1 1.8 8.1 3.8 12.2 5.8-.9-.2-1.7-.4-2.6-.6-.3-.3-.6-.4-.9-.2z"/>
        <path class="st2" d="M130.6 41.8c.5-2.5 1.1-5.1 1.6-7.6h.1V37c-.2 4-.4 8.1-.7 12.1-.2 1.9-1 3.7-1.9 5.3-4.3 7.6-9.8 14.2-16.4 19.9-2.2 1.9-5 2.6-7.7 3.4-3.2.9-6.3 1.8-9.5 2.7-.3.1-.6.1-.8.4-.7-.2-1.3.6-2.1.2 5.2-2.4 10.4-4.8 15.5-7.2 1.8-.8 3.3-2.1 4.7-3.5 5.4-5.1 10-10.9 13.8-17.3 1.6-2.7 2.4-5.6 2.9-8.6.2-.9.4-1.8.5-2.6z"/>
        <path class="st4" d="M185.3 80.4c.4-.2.7 0 1 .2-.3 0-.7.3-1-.2z"/>
        <path class="st2" d="M145.1 136.5c-3.3 2-6.5 1.5-9.6.1 3.1.2 6.2.3 9.6-.1z"/>
        <path class="st2" d="M179.4 101.9c0 .1.1.2.1.2h-.2c0-.1 0-.2.1-.2z"/>
    </g>
    <path class="st7" d="M141.7 194c-11.2 0-22-2.2-32.2-6.5-9.9-4.2-18.7-10.1-26.3-17.7s-13.6-16.5-17.7-26.3c-4.3-10.2-6.5-21.1-6.5-32.2s2.2-22 6.5-32.2c4.2-9.9 10.1-18.7 17.7-26.3 7.6-7.8 16.4-13.8 26.3-18 10.2-4.3 21.1-6.5 32.2-6.5 11.2 0 22 2.2 32.2 6.5 9.9 4.2 18.7 10.1 26.3 17.7 7.6 7.6 13.6 16.5 17.7 26.3 4.3 10.2 6.5 21.1 6.5 32.2s-2.2 22-6.5 32.2c-4.2 9.9-10.1 18.7-17.7 26.3s-16.5 13.6-26.3 17.7c-10.1 4.6-21 6.8-32.2 6.8zm0-162.4c-43.9 0-79.6 35.7-79.6 79.6 0 43.9 35.7 79.6 79.6 79.6s79.6-35.7 79.6-79.6c0-43.9-35.7-79.6-79.6-79.6z"/>
    <g>
        <path class="st3" d="M87.9 255.3c-1.1 0-2-.4-2.7-1.1s-1.1-1.6-1.1-2.7.4-2 1.1-2.7c.7-.7 1.6-1.1 2.7-1.1 1.3 0 2.3.5 2.9 1.6l-1.1.6c-.2-.3-.4-.6-.8-.8-.3-.2-.7-.3-1.1-.3-.7 0-1.3.2-1.8.7-.5.5-.7 1.1-.7 1.9s.2 1.4.7 1.9c.5.5 1.1.7 1.8.7.4 0 .7-.1 1.1-.3.3-.2.6-.5.8-.8l1.1.6c-.6 1.2-1.6 1.8-2.9 1.8z"/>
        <path class="st3" d="M98 255.1h-5v-7.3h5v1.1h-3.7v1.9H98v1.1h-3.7v2H98v1.2z"/>
        <path class="st3" d="M103.5 255.1h-1.3v-6.2H100v-1.1h5.7v1.1h-2.2v6.2z"/>
        <path class="st3" d="M107.9 247.8h1.3v2.7h1.9c.7 0 1.3.2 1.8.7.4.4.6 1 .6 1.6 0 .7-.2 1.2-.6 1.6-.4.4-1 .7-1.8.7h-3.2v-7.3zm3 3.9h-1.8v2.3h1.8c.4 0 .7-.1.9-.3.2-.2.4-.5.4-.8 0-.4-.1-.6-.4-.8-.2-.3-.5-.4-.9-.4z"/>
        <path class="st3" d="M125.7 254.2c-.7.7-1.6 1.1-2.7 1.1s-2-.4-2.7-1.1-1.1-1.6-1.1-2.7.4-2 1.1-2.7c.7-.7 1.6-1.1 2.7-1.1s2 .4 2.7 1.1c.7.7 1.1 1.6 1.1 2.7s-.4 2-1.1 2.7zm-2.7-.1c.7 0 1.3-.3 1.8-.8.4-.5.7-1.1.7-1.9 0-.8-.2-1.4-.7-1.9-.4-.5-1-.7-1.8-.7-.7 0-1.3.2-1.8.7-.4.5-.7 1.1-.7 1.9s.2 1.4.7 1.9c.5.6 1 .8 1.8.8z"/>
        <path class="st3" d="M129.1 247.8h5v1.1h-3.7v1.6h1.9c.7 0 1.3.2 1.8.7.4.4.6 1 .6 1.6 0 .7-.2 1.2-.6 1.6-.4.4-1 .7-1.8.7h-3.2v-7.3zm3 3.9h-1.8v2.3h1.8c.4 0 .7-.1.9-.3.2-.2.4-.5.4-.8 0-.4-.1-.6-.4-.8-.2-.3-.5-.4-.9-.4z"/>
        <path class="st3" d="M144.5 247.8h1.3v6.2h.7v2.5h-1.3v-1.4h-8.3v-7.3h1.3v6.2h2.5v-6.2h1.3v6.2h2.5v-6.2z"/>
        <path class="st3" d="M153.5 255.1h-5v-7.3h5v1.1h-3.7v1.9h3.7v1.1h-3.7v2h3.7v1.2z"/>
        <path class="st3" d="M156.8 255.1h-1.6l3.2-3.9-3-3.5h1.6l2.6 3.2v-3.2h1.3v3.2l2.6-3.2h1.6l-3 3.5 3.2 3.9h-1.6l-2.5-3.1-.4.4v2.7h-1.3v-2.7l-.4-.4-2.3 3.1z"/>
        <path class="st3" d="M168.5 255.1h-1.2v-7.3h1.3v5.1l3.7-5.1h1.3v7.3h-1.3v-5.2l-3.8 5.2z"/>
        <path class="st3" d="M179.3 255.1H178v-6.2h-2.2v-1.1h5.7v1.1h-2.2v6.2z"/>
        <path class="st3" d="M184.9 255.1h-1.2v-7.3h1.3v5.1l3.7-5.1h1.3v7.3h-1.3v-5.2l-3.8 5.2z"/>
        <path class="st3" d="M193.9 255.1h-1.2v-7.3h1.3v5.1l3.7-5.1h1.3v7.3h-1.3v-5.2l-3.8 5.2zm3.9-8.6c-.5.6-1.1 1-1.9 1-.8 0-1.4-.3-1.9-1l.5-.4c.4.5.8.7 1.4.7.6 0 1-.2 1.4-.7l.5.4z"/>
        <g>
            <path class="st8" d="M52.2 216H48l-.6-3.7c-.5-.5-1.2-1-2.1-1.3-.8-.3-1.8-.5-3-.5-2.4 0-4.3.9-5.6 2.6-1.3 1.8-2 4-2 6.9v1c0 2.8.6 5.1 1.9 6.9 1.3 1.8 3.1 2.7 5.5 2.7 1.1 0 2.1-.2 3-.5.9-.3 1.6-.8 2.1-1.3l.6-3.7h4.1v5.5c-1.1 1.3-2.5 2.3-4.3 3.1-1.7.8-3.7 1.2-5.8 1.2-3.7 0-6.8-1.3-9.2-3.9-2.4-2.6-3.6-5.9-3.6-9.9v-.9c0-4 1.2-7.4 3.6-9.9 2.4-2.6 5.4-3.9 9.2-3.9 2.2 0 4.1.4 5.8 1.2 1.7.8 3.2 1.8 4.3 3.1v5.3z"/>
            <path class="st8" d="M80.9 206.6v7.4h-4.3l-.2-3.1h-5.1v19.6l3 .6v3.3H62.7v-3.3l3-.6v-19.6h-5.1l-.2 3.1h-4.3v-7.4h24.8z"/>
            <path class="st8" d="M81.2 231.1l2-.3 8.5-24.2h5.7l8.4 24.2 2 .3v3.3h-9.5v-3.3l1.9-.3L99 227h-9l-1.2 3.8 1.9.3v3.3h-9.5v-3.3zm10.1-8.3h6.4l-3.1-9.8h-.1l-3.2 9.8z"/>
            <path class="st8" d="M111.3 231.1l2.3-.5 7.4-10.2-7.2-9.9-2.3-.5v-3.4h10.7v3.4l-2.3.2 4.3 6.8 4.3-6.8-2.2-.2v-3.4H137v3.4l-2.3.5-7.2 9.9 7.5 10.2 2.5.5v3.3h-10.9v-3.3l2.2-.2-4.5-7-4.5 7 2.2.2v3.3h-10.7v-3.3z"/>
            <path class="st8" d="M141.2 231.1l2-.3 8.5-24.2h5.7l8.4 24.2 2 .3v3.3h-9.5v-3.3l1.9-.3-1.2-3.8h-9l-1.2 3.8 1.9.3v3.3h-9.5v-3.3zm10.1-8.3h6.4l-3.1-9.8h-.1l-3.2 9.8z"/>
            <path class="st8" d="M171.8 210v-3.4h11.5v3.4l-3 .6v8h11.3v-8l-3-.6v-3.4h11.6v3.4l-3 .6v20l3 .6v3.3h-11.5v-3.3l3-.6V223h-11.3v7.6l3 .6v3.3h-11.5v-3.3l3-.6v-20l-3.1-.6z"/>
            <path class="st8" d="M228 220.7c0 4.1-1.2 7.4-3.5 10.1-2.3 2.7-5.4 4-9.1 4-3.8 0-6.8-1.3-9.1-4s-3.5-6-3.5-10.1v-.4c0-4 1.2-7.4 3.5-10.1 2.3-2.7 5.3-4 9.1-4s6.8 1.3 9.2 4c2.3 2.7 3.5 6 3.5 10.1v.4zm-5.6-.4c0-2.9-.6-5.2-1.8-7-1.2-1.8-3-2.7-5.3-2.7s-4.1.9-5.2 2.7c-1.2 1.8-1.7 4.1-1.7 7v.5c0 2.9.6 5.3 1.7 7.1s2.9 2.7 5.2 2.7c2.4 0 4.1-.9 5.3-2.7s1.8-4.1 1.8-7.1v-.5z"/>
            <path class="st8" d="M242.7 206.6c3.3 0 5.8.6 7.7 1.9 1.8 1.3 2.7 3.2 2.7 5.7 0 1.3-.3 2.4-1 3.4s-1.7 1.8-3 2.3c1.7.4 2.9 1.1 3.8 2.3.8 1.2 1.3 2.5 1.3 4.1 0 2.7-.9 4.7-2.6 6-1.8 1.4-4.2 2.1-7.5 2.1h-13.7v-3.3l3-.6v-20l-3-.6v-3.4h12.3zm-3.8 11.7h4c1.5 0 2.6-.3 3.4-.9.8-.6 1.2-1.5 1.2-2.7 0-1.3-.4-2.2-1.2-2.8-.8-.6-2-.9-3.6-.9h-3.8v7.3zm0 3.8v8h5.1c1.5 0 2.6-.3 3.4-1 .8-.6 1.2-1.6 1.2-2.9 0-1.4-.3-2.4-1-3.1-.7-.7-1.7-1.1-3.1-1.1h-5.6z"/>
        </g>
        <g>
            <path class="st9" d="M195.7 189.4h77.9c3.5 0 6.4 2.9 6.4 6.4v49.4c0 3.5-2.9 6.4-6.4 6.4h-63.8"/>
            <path class="st9" d="M70.6 251.6H9.8c-3.5 0-6.4-2.9-6.4-6.4v-49.4c0-3.5 2.9-6.4 6.4-6.4h79"/>
        </g>
    </g>
</svg>
