<?xml version="1.0" encoding="UTF-8"?><!DOCTYPE svg PUBLIC "-//W3C//DTD SVG 1.1//EN" "http://www.w3.org/Graphics/SVG/1.1/DTD/svg11.dtd"><svg xmlns="http://www.w3.org/2000/svg"><symbol id="icon-email-filled-closed-envelope" viewBox="0 0 13 13">
    <style>
        .st0{fill:#5a9f4e}
    </style>
    <path class="st0" d="M6.5 7.3c.1 0 .2 0 .3-.1l.3-.2 5.8-4.8H.2l6 5c.1.1.2.1.3.1zM.2 2.9V10l4.3-3.5L.2 2.9zm8.3 3.6l4.3 3.5V3L8.5 6.5zM7.2 7.7c-.2.1-.4.2-.7.2-.2 0-.5-.1-.6-.2l-1-.8-4.7 3.8s0 .1.1.1h12.6s.1 0 .1-.1L8.1 6.9l-.9.8z"/>
</symbol><symbol id="icon-facebook-logo" viewBox="0 0 95.481 95.481">
    <path d="M43.041 67.254c-7.402-.772-14.076-2.595-19.79-7.064-.709-.556-1.441-1.092-2.088-1.713-2.501-2.402-2.753-5.153-.774-7.988 1.693-2.426 4.535-3.075 7.489-1.682.572.27 1.117.607 1.639.969 10.649 7.317 25.278 7.519 35.967.329 1.059-.812 2.191-1.474 3.503-1.812 2.551-.655 4.93.282 6.299 2.514 1.564 2.549 1.544 5.037-.383 7.016-2.956 3.034-6.511 5.229-10.461 6.761-3.735 1.448-7.826 2.177-11.875 2.661.611.665.899.992 1.281 1.376 5.498 5.524 11.02 11.025 16.5 16.566 1.867 1.888 2.257 4.229 1.229 6.425-1.124 2.4-3.64 3.979-6.107 3.81-1.563-.108-2.782-.886-3.865-1.977-4.149-4.175-8.376-8.273-12.441-12.527-1.183-1.237-1.752-1.003-2.796.071-4.174 4.297-8.416 8.528-12.683 12.735-1.916 1.889-4.196 2.229-6.418 1.15-2.362-1.145-3.865-3.556-3.749-5.979.08-1.639.886-2.891 2.011-4.014 5.441-5.433 10.867-10.88 16.295-16.322.359-.362.694-.746 1.217-1.305z"/>
    <path d="M47.55 48.329c-13.205-.045-24.033-10.992-23.956-24.218C23.67 10.739 34.505-.037 47.84 0c13.362.036 24.087 10.967 24.02 24.478-.068 13.199-10.971 23.897-24.31 23.851zm12.001-24.186c-.023-6.567-5.253-11.795-11.807-11.801-6.609-.007-11.886 5.316-11.835 11.943.049 6.542 5.324 11.733 11.896 11.709 6.552-.023 11.768-5.285 11.746-11.851z"/>
</symbol><symbol id="icon-gps" viewBox="0 0 477.112 477.112">
    <linearGradient id="a" gradientUnits="userSpaceOnUse" x1="-28.319" y1="557.986" x2="-28.319" y2="618.787" gradientTransform="matrix(8 0 0 -8 465.108 4941)">
        <stop offset="0" stop-color="#006df0"/>
        <stop offset="1" stop-color="#00e7f0"/>
    </linearGradient>
    <path d="M238.556 0c-92.74.106-167.894 75.26-168 168 0 90.056 155.064 292.32 161.664 300.88l6.336 8.232 6.336-8.232c6.6-8.56 161.664-210.824 161.664-300.88-.106-92.74-75.26-167.894-168-168zm0 450.728c-29.528-39.528-152-207.896-152-282.728 0-83.947 68.053-152 152-152s152 68.053 152 152c0 74.816-122.472 243.2-152 282.728z"/>
    <linearGradient id="b" gradientUnits="userSpaceOnUse" x1="-28.319" y1="558.035" x2="-28.319" y2="618.838" gradientTransform="matrix(8 0 0 -8 465.108 4941)">
        <stop offset="0" stop-color="#006df0"/>
        <stop offset="1" stop-color="#00e7f0"/>
    </linearGradient>
    <path d="M238.556 112c-30.928 0-56 25.072-56 56s25.072 56 56 56 56-25.072 56-56c-.035-30.913-25.087-55.965-56-56zm0 96c-22.091 0-40-17.909-40-40s17.909-40 40-40 40 17.909 40 40c-.026 22.08-17.92 39.974-40 40z"/>
</symbol><symbol id="icon-instagram-logo" viewBox="0 0 169.063 169.063">
    <path d="M122.406 0H46.654C20.929 0 0 20.93 0 46.655v75.752c0 25.726 20.929 46.655 46.654 46.655h75.752c25.727 0 46.656-20.93 46.656-46.655V46.655C169.063 20.93 148.133 0 122.406 0zm31.657 122.407c0 17.455-14.201 31.655-31.656 31.655H46.654C29.2 154.063 15 139.862 15 122.407V46.655C15 29.201 29.2 15 46.654 15h75.752c17.455 0 31.656 14.201 31.656 31.655v75.752z"/>
    <path d="M84.531 40.97c-24.021 0-43.563 19.542-43.563 43.563 0 24.02 19.542 43.561 43.563 43.561s43.563-19.541 43.563-43.561c0-24.021-19.542-43.563-43.563-43.563zm0 72.123c-15.749 0-28.563-12.812-28.563-28.561 0-15.75 12.813-28.563 28.563-28.563s28.563 12.813 28.563 28.563c0 15.749-12.814 28.561-28.563 28.561z"/>
    <path d="M129.921 28.251c-2.89 0-5.729 1.17-7.77 3.22a11.053 11.053 0 0 0-3.23 7.78c0 2.891 1.18 5.73 3.23 7.78 2.04 2.04 4.88 3.22 7.77 3.22 2.9 0 5.73-1.18 7.78-3.22 2.05-2.05 3.22-4.89 3.22-7.78 0-2.9-1.17-5.74-3.22-7.78-2.04-2.05-4.88-3.22-7.78-3.22z"/>
</symbol><symbol id="icon-paint-roller" viewBox="0 0 463 463">
    <path d="M423.5 40h-.5v-8.5C423 14.131 408.869 0 391.5 0h-288C86.131 0 72 14.131 72 31.5V40h-.5C58.542 40 48 50.542 48 63.5V72h-.5C30.131 72 16 86.131 16 103.5v64c0 17.369 14.131 31.5 31.5 31.5h176c9.098 0 16.5 7.402 16.5 16.5V232h-8.5c-12.958 0-23.5 10.542-23.5 23.5v168c0 21.78 17.72 39.5 39.5 39.5s39.5-17.72 39.5-39.5v-168c0-12.958-10.542-23.5-23.5-23.5H255v-16.5c0-17.369-14.131-31.5-31.5-31.5h-176c-9.098 0-16.5-7.402-16.5-16.5v-64C31 94.402 38.402 87 47.5 87h.5v8.5c0 12.958 10.542 23.5 23.5 23.5h.5v8.5c0 17.369 14.131 31.5 31.5 31.5h288c17.369 0 31.5-14.131 31.5-31.5V119h.5c12.958 0 23.5-10.542 23.5-23.5v-32c0-12.958-10.542-23.5-23.5-23.5zm-176 408c-13.509 0-24.5-10.99-24.5-24.5V279h49v144.5c0 13.51-10.991 24.5-24.5 24.5zM272 255.5v8.5h-49v-8.5c0-4.687 3.813-8.5 8.5-8.5h32c4.687 0 8.5 3.813 8.5 8.5zM71.5 104c-4.687 0-8.5-3.813-8.5-8.5v-32c0-4.687 3.813-8.5 8.5-8.5h.5v49h-.5zM408 127.5c0 9.098-7.402 16.5-16.5 16.5h-288c-9.098 0-16.5-7.402-16.5-16.5v-96c0-9.098 7.402-16.5 16.5-16.5h288c9.098 0 16.5 7.402 16.5 16.5v96zm24-32c0 4.687-3.813 8.5-8.5 8.5h-.5V55h.5c4.687 0 8.5 3.813 8.5 8.5v32z"/>
    <path d="M247.5 416a7.51 7.51 0 0 0-7.5 7.5c0 1.97.8 3.91 2.2 5.3 1.39 1.4 3.33 2.2 5.3 2.2 1.97 0 3.91-.8 5.3-2.2 1.4-1.4 2.2-3.33 2.2-5.3 0-1.971-.8-3.91-2.2-5.3a7.528 7.528 0 0 0-5.3-2.2z"/>
</symbol><symbol id="icon-police-badge" viewBox="0 0 462.896 462.896">
    <path d="M425.118 42.508L385.6 2.99a10.152 10.152 0 0 0-8.16-2.944 10.252 10.252 0 0 0-7.531 4.469c-15.055 22.154-39.899 35.381-66.461 35.381-26.145 0-50.766-12.827-65.863-34.312a7.499 7.499 0 0 0-12.274 0c-15.098 21.485-39.72 34.312-65.863 34.312-26.562 0-51.407-13.227-66.459-35.377a10.253 10.253 0 0 0-7.53-4.473 10.152 10.152 0 0 0-8.163 2.944L37.78 42.506c-3.758 3.756-3.857 9.773-.229 13.699 24.258 26.246 18.486 66.747 11.18 118.023-4.117 28.891-8.783 61.637-8.783 97.167 0 72.426 67.778 110.435 122.238 140.975 28.36 15.904 55.147 30.925 62.498 46.266a7.5 7.5 0 0 0 13.528 0c7.351-15.34 34.138-30.362 62.498-46.266 54.46-30.541 122.238-68.549 122.238-140.975 0-35.531-4.666-68.276-8.783-97.167-7.307-51.276-13.078-91.778 11.179-118.022 3.629-3.926 3.53-9.944-.226-13.698zm-25.803 133.837c4.046 28.397 8.633 60.584 8.633 95.051 0 28.079-12.044 52.948-36.821 76.029-22.277 20.753-51.751 37.281-77.754 51.863-26.079 14.625-49.243 27.615-61.925 42.631-12.682-15.016-35.846-28.006-61.925-42.631-26.003-14.582-55.477-31.11-77.754-51.863-24.777-23.081-36.821-47.95-36.821-76.029 0-34.467 4.587-66.654 8.633-95.051 7.565-53.091 13.604-95.456-11.803-126.624l32.148-32.148c18.059 23.472 45.884 37.324 75.521 37.324 27.697 0 53.948-12.123 72-32.854 18.051 20.729 44.304 32.854 72 32.854 29.637 0 57.462-13.852 75.521-37.324l32.149 32.149c-25.404 31.166-19.367 73.532-11.802 126.623z"/>
    <path d="M371.963 73.541a7.501 7.501 0 0 0-10.877-8.413c-17.625 9.661-37.557 14.768-57.638 14.768-24.23 0-47.667-7.242-67.777-20.944a7.502 7.502 0 0 0-8.445 0c-20.11 13.702-43.547 20.944-67.777 20.944-20.081 0-40.012-5.106-57.639-14.768a7.5 7.5 0 0 0-10.876 8.413c8.022 31.77 2.861 67.987-2.604 106.341-4.12 28.919-8.381 58.822-8.381 91.513 0 45.482 42.194 72.658 101.804 106.086 16.562 9.288 32.206 18.061 45.345 27.42 1.302.928 2.827 1.392 4.352 1.392s3.05-.464 4.352-1.392c13.139-9.36 28.783-18.132 45.345-27.42 59.609-33.428 101.804-60.604 101.804-106.086 0-32.698-4.262-62.604-8.384-91.524-5.467-38.342-10.628-74.559-2.604-106.33zM231.448 303.896c-44.388 0-80.5-36.112-80.5-80.5s36.112-80.5 80.5-80.5 80.5 36.112 80.5 80.5-36.112 80.5-80.5 80.5zm-136.5-32.5c0-31.628 4.185-60.996 8.232-89.408 4.869-34.171 9.508-66.717 5.215-97.137 16.165 6.6 33.559 10.045 51.053 10.045 22.669 0 44.713-5.644 64.5-16.404v49.698c-49.167 3.838-88 45.072-88 95.206s38.833 91.369 88 95.206v66.158c-10.814-6.863-22.581-13.476-34.86-20.362-55.121-30.91-94.14-55.676-94.14-93.002zm178.86 93.003c-12.279 6.886-24.046 13.499-34.86 20.362v-66.158c49.167-3.838 88-45.072 88-95.206s-38.833-91.369-88-95.206V78.492a134.643 134.643 0 0 0 64.5 16.404c17.495 0 34.888-3.444 51.053-10.045-4.294 30.42.345 62.966 5.214 97.137 4.048 28.403 8.233 57.773 8.233 89.408 0 37.326-39.018 62.092-94.14 93.003z"/>
    <path d="M278.384 200.638l-25.291-3.675-11.311-22.917c-1.871-3.793-5.662-6.15-9.892-6.15s-8.021 2.356-9.892 6.149l-11.311 22.918-25.293 3.675a10.958 10.958 0 0 0-8.903 7.508 10.962 10.962 0 0 0 2.791 11.307l18.301 17.839-4.319 25.188a10.962 10.962 0 0 0 4.387 10.79 10.963 10.963 0 0 0 11.618.84l22.621-11.893 22.622 11.893a11.035 11.035 0 0 0 5.143 1.279c2.278 0 4.541-.714 6.475-2.119a10.961 10.961 0 0 0 4.387-10.789l-4.32-25.189 18.301-17.838c3.029-2.952 4.099-7.285 2.792-11.308s-4.72-6.9-8.906-7.508zm-25.482 28.665a7.497 7.497 0 0 0-2.156 6.639l3.627 21.149-18.992-9.985a7.504 7.504 0 0 0-6.98 0l-18.993 9.985 3.627-21.149a7.498 7.498 0 0 0-2.156-6.638l-15.365-14.978 21.234-3.086a7.498 7.498 0 0 0 5.647-4.103l9.496-19.241 9.496 19.241a7.502 7.502 0 0 0 5.647 4.103l21.234 3.086-15.366 14.977z"/>
</symbol><symbol id="icon-sofa" viewBox="0 0 39.4 25.6">
    <path d="M1.6 9.6c.2-.6.4-1.2.8-1.7.9-1 2-1.4 3.3-1.2h.2c.1-.8.4-1.6.9-2.2.9-1.3 2.2-2 3.7-2h18.2c2.6 0 4.5 1.5 4.9 4.1 0 0 0 .1 0 0 .6.1 1.2 0 1.8.2 1.3.3 2.1 1.3 2.5 2.6 0 .1 0 .2.1.2v.9c-.2.7-.4 1.4-1 2-.5.4-1 .7-1.5.8-.2.1-.3.2-.3.4v5c0 .9-.3 1.7-1.2 2.1.3.6.1 1.1-.3 1.6-.1.1-.1.3-.1.4 0 .9 0 .9-.9.9h-.9c-.3 0-.5-.1-.5-.5s0-.8-.4-1.1c-.3-.3-.3-.7-.1-1.1H8.7c.2.6 0 1-.4 1.4-.1.1-.1.4-.1.6 0 .6-.1.7-.7.7H6.4c-.3 0-.5-.1-.5-.5s0-.8-.4-1.1c-.3-.3-.3-.6-.1-1.2-.1-.1-.3-.2-.4-.3-.5-.4-.7-.9-.7-1.6v-5.3c0-.2 0-.3-.3-.4-1.3-.4-2.1-1.3-2.4-2.6 0-.1 0-.2-.1-.2.1-.3.1-.6.1-.9zm6.9 3.9c.5-.1 1-.2 1.4-.3 2.2-.4 4.4-.4 6.5-.2 1.1.1 2.2.2 3.2.7h.2c.9-.4 1.9-.6 3-.7 2.2-.2 4.4-.2 6.6.1.5.1 1 .2 1.6.3V13 9.9c0-1.1.5-2 1.4-2.6.4-.3.5-.6.4-1v-.2c-.5-1.8-2.1-3-4-3h-18c-2.1 0-3.7 1.3-4.1 3.4-.1.3 0 .5.3.7.4.3.8.7 1.1 1.2.3.5.4 1.2.4 1.9v3.2zm26 .1c-.5-.1-1-.3-1.5-.4-.2-.1-.5-.2-.3-.5.1-.3.4-.3.6-.1.5.2 1 .3 1.6.2 1.4-.2 2.5-1.5 2.3-3.1-.2-1.4-1.5-2.4-2.9-2.3-1.5.1-2.5 1.3-2.5 2.8v5.6c0 1-.4 1.4-1.3 1.4H9.2c-.9 0-1.3-.4-1.3-1.3v-5.5c0-.6-.1-1.1-.4-1.6-.6-1.1-2-1.6-3.2-1.2-1.3.3-2.1 1.5-1.9 2.7.2 1.9 2.1 3 3.8 2.2.3-.1.5-.2.6.1s-.1.4-.3.5c-.5.1-.9.3-1.5.4v5.3c0 1.1.5 1.5 1.5 1.5H33c1 0 1.5-.5 1.5-1.4v-5-.3zm-14.4 2.7h10.4c.3 0 .4-.2.4-.5v-1.2c0-.3-.1-.5-.4-.5-.7-.1-1.4-.3-2.1-.4-2-.2-3.9-.2-5.9 0-.7.1-1.5.3-2.2.4-.2 0-.3.1-.3.4.1.6.1 1.2.1 1.8zm-.7.1v-1.9c0-.1-.1-.2-.2-.3-.4-.1-.9-.3-1.3-.3-2.3-.4-4.6-.4-6.9-.1-.7.1-1.4.3-2.1.4-.2 0-.3.2-.3.4v1.1c0 .5.1.6.6.6h6.7c1.1.1 2.3.1 3.5.1zM32.1 23h.8c0-.4 0-.8.4-1.1.1-.1.2-.4.2-.5-.1-.1-.3-.3-.5-.3h-.8c-.3 0-.5.1-.5.3 0 .2.1.4.2.5.2.2.4.5.3.8-.1.1-.1.2-.1.3zM7.5 23c-.1-.5 0-.9.5-1.2.1-.1.1-.3.1-.4-.1-.1-.3-.3-.4-.3h-.9c-.3 0-.5.1-.6.3-.1.3 0 .4.2.6.3.2.4.4.3.7v.3h.8z"/>
    <path d="M12.9 11c-.2.2-.4.5-.8.2-.3-.3.1-.5.2-.8-.2-.2-.5-.5-.2-.8.3-.3.5 0 .7.2.3-.1.5-.6.8-.2.3.3-.1.5-.2.7.1.3.6.5.2.8-.3.4-.5.1-.7-.1z"/>
    <path d="M26.6 9.9c.2-.2.4-.6.8-.2.3.3 0 .5-.2.8.1.3.6.5.2.8-.3.3-.5-.1-.7-.3-.3.1-.5.6-.8.2-.3-.3.1-.5.2-.8-.2-.2-.5-.4-.2-.8.3-.2.5.2.7.3z"/>
    <path d="M12.9 5.9c.3-.2.5-.6.8-.2.3.3 0 .5-.2.8.2.2.6.5.2.8-.3.3-.5-.1-.8-.2-.2.1-.4.6-.8.2-.3-.3.1-.5.2-.7-.2-.2-.6-.5-.2-.8.3-.4.5 0 .8.1z"/>
    <path d="M26.6 5.9c.2-.2.4-.6.8-.2.3.3-.1.5-.2.8.2.2.5.5.2.8-.3.3-.5-.1-.7-.2-.2.1-.5.6-.8.2-.3-.3.1-.5.2-.7-.2-.2-.5-.5-.2-.8.3-.4.5 0 .7.1z"/>
    <path d="M19.2 6.5c-.1-.2-.5-.4-.2-.8.3-.3.5.1.8.2.2-.2.4-.6.8-.2.3.3-.1.5-.2.8.1.2.4.4.1.7-.3.3-.5-.1-.7-.2-.2.1-.5.6-.8.2-.3-.3.1-.5.2-.7z"/>
    <path d="M19.2 10.5c-.2-.2-.5-.5-.2-.8s.5.1.7.2c.2-.1.5-.6.8-.2.3.3-.1.5-.2.8.2.2.5.4.2.8-.3.3-.5-.1-.8-.2-.2.1-.5.6-.8.2-.2-.4.2-.6.3-.8z"/>
    <path d="M3.5 10.1c0-.9.7-1.6 1.5-1.6s1.6.7 1.6 1.6c0 .9-.7 1.5-1.6 1.5-.8 0-1.5-.7-1.5-1.5zm2.4 0c0-.5-.4-.8-.8-.8-.5 0-.8.4-.8.8s.4.8.8.8.8-.4.8-.8z"/>
    <path d="M36 10.1c0 .9-.7 1.6-1.5 1.6-.9 0-1.6-.7-1.6-1.5s.7-1.6 1.5-1.6c.9-.1 1.6.6 1.6 1.5zm-2.4 0c0 .4.4.8.8.8s.8-.4.8-.8-.4-.8-.8-.8c-.4-.1-.8.3-.8.8z"/>
</symbol><symbol id="icon-tv" viewBox="0 0 512 512.00049">
    <path d="M467 91.004H283.855l44.668-67.746c4.559-6.914 2.649-16.219-4.265-20.778-6.918-4.562-16.223-2.652-20.781 4.266L256 78.754 208.523 6.746c-4.558-6.918-13.863-8.828-20.78-4.266-6.919 4.56-8.825 13.864-4.266 20.778l44.664 67.746H45c-24.813 0-45 20.183-45 45V436c0 24.813 20.187 45 45 45h15v16c0 8.285 6.715 15 15 15s15-6.715 15-15v-16h332v16c0 8.285 6.715 15 15 15 8.281 0 15-6.715 15-15v-16h15c24.812 0 45-20.188 45-45V136.004c0-24.817-20.188-45-45-45zM482 436c0 8.273-6.73 15-15 15H45c-8.27 0-15-6.727-15-15V136.004c0-8.274 6.73-15 15-15h422c8.27 0 15 6.726 15 15zm0 0"/>
    <path d="M377 151H75c-8.285 0-15 6.719-15 15v240c0 8.285 6.715 15 15 15h302c8.281 0 15-6.715 15-15V166c0-8.281-6.719-15-15-15zM90 391V181h272v210zm0 0"/>
    <path d="M451.969 226c0 8.285-6.715 15-15 15-8.281 0-15-6.715-15-15 0-8.281 6.719-15 15-15 8.285 0 15 6.719 15 15zm0 0"/>
    <path d="M451.969 286c0 8.285-6.715 15-15 15-8.281 0-15-6.715-15-15 0-8.281 6.719-15 15-15 8.285 0 15 6.719 15 15zm0 0"/>
    <path d="M451.969 346c0 8.285-6.715 15-15 15-8.281 0-15-6.715-15-15 0-8.281 6.719-15 15-15 8.285 0 15 6.719 15 15zm0 0"/>
</symbol><symbol id="icon-twitter-logo" viewBox="0 0 512.002 512.002">
    <path d="M512.002 97.211c-18.84 8.354-39.082 14.001-60.33 16.54 21.686-13 38.342-33.585 46.186-58.115a210.29 210.29 0 0 1-66.705 25.49c-19.16-20.415-46.461-33.17-76.674-33.17-58.011 0-105.042 47.029-105.042 105.039 0 8.233.929 16.25 2.72 23.939-87.3-4.382-164.701-46.2-216.509-109.753-9.042 15.514-14.223 33.558-14.223 52.809 0 36.444 18.544 68.596 46.73 87.433a104.614 104.614 0 0 1-47.577-13.139c-.01.438-.01.878-.01 1.321 0 50.894 36.209 93.348 84.261 103a105.245 105.245 0 0 1-27.674 3.687c-6.769 0-13.349-.66-19.764-1.888 13.368 41.73 52.16 72.104 98.126 72.949-35.95 28.176-81.243 44.967-130.458 44.967-8.479 0-16.84-.496-25.058-1.471 46.486 29.807 101.701 47.197 161.021 47.197 193.211 0 298.868-160.062 298.868-298.872 0-4.554-.104-9.084-.305-13.59 20.526-14.809 38.335-33.309 52.417-54.373z"/>
</symbol><symbol id="icon-vk-logo" viewBox="0 0 548.358 548.358">
    <path d="M545.451 400.298c-.664-1.431-1.283-2.618-1.858-3.569-9.514-17.135-27.695-38.167-54.532-63.102l-.567-.571-.284-.28-.287-.287h-.288c-12.18-11.611-19.893-19.418-23.123-23.415-5.91-7.614-7.234-15.321-4.004-23.13 2.282-5.9 10.854-18.36 25.696-37.397 7.807-10.089 13.99-18.175 18.556-24.267 32.931-43.78 47.208-71.756 42.828-83.939l-1.701-2.847c-1.143-1.714-4.093-3.282-8.846-4.712-4.764-1.427-10.853-1.663-18.278-.712l-82.224.568c-1.332-.472-3.234-.428-5.712.144l-3.713.859-1.431.715-1.136.859c-.952.568-1.999 1.567-3.142 2.995-1.137 1.423-2.088 3.093-2.848 4.996-8.952 23.031-19.13 44.444-30.553 64.238-7.043 11.803-13.511 22.032-19.418 30.693-5.899 8.658-10.848 15.037-14.842 19.126-4 4.093-7.61 7.372-10.852 9.849-3.237 2.478-5.708 3.525-7.419 3.142-1.715-.383-3.33-.763-4.859-1.143-2.663-1.714-4.805-4.045-6.42-6.995-1.622-2.95-2.714-6.663-3.285-11.136-.568-4.476-.904-8.326-1-11.563-.089-3.233-.048-7.806.145-13.706.198-5.903.287-9.897.287-11.991 0-7.234.141-15.085.424-23.555.288-8.47.521-15.181.716-20.125.194-4.949.284-10.185.284-15.705s-.336-9.849-1-12.991a44.442 44.442 0 0 0-2.99-9.137c-1.335-2.95-3.289-5.232-5.853-6.852-2.569-1.618-5.763-2.902-9.564-3.856-10.089-2.283-22.936-3.518-38.547-3.71-35.401-.38-58.148 1.906-68.236 6.855-3.997 2.091-7.614 4.948-10.848 8.562-3.427 4.189-3.905 6.475-1.431 6.851 11.422 1.711 19.508 5.804 24.267 12.275l1.715 3.429c1.334 2.474 2.666 6.854 3.999 13.134 1.331 6.28 2.19 13.227 2.568 20.837.95 13.897.95 25.793 0 35.689-.953 9.9-1.853 17.607-2.712 23.127-.859 5.52-2.143 9.993-3.855 13.418-1.715 3.426-2.856 5.52-3.428 6.28-.571.76-1.047 1.239-1.425 1.427a21.387 21.387 0 0 1-7.71 1.431c-2.667 0-5.901-1.334-9.707-4-3.805-2.666-7.754-6.328-11.847-10.992-4.093-4.665-8.709-11.184-13.85-19.558-5.137-8.374-10.467-18.271-15.987-29.691l-4.567-8.282c-2.855-5.328-6.755-13.086-11.704-23.267-4.952-10.185-9.329-20.037-13.134-29.554-1.521-3.997-3.806-7.04-6.851-9.134l-1.429-.859c-.95-.76-2.475-1.567-4.567-2.427a30.301 30.301 0 0 0-6.567-1.854l-78.229.568c-7.994 0-13.418 1.811-16.274 5.428l-1.143 1.711c-.571.953-.859 2.475-.859 4.57 0 2.094.571 4.664 1.714 7.707 11.42 26.84 23.839 52.725 37.257 77.659 13.418 24.934 25.078 45.019 34.973 60.237 9.897 15.229 19.985 29.602 30.264 43.112 10.279 13.515 17.083 22.176 20.412 25.981 3.333 3.812 5.951 6.662 7.854 8.565l7.139 6.851c4.568 4.569 11.276 10.041 20.127 16.416 8.853 6.379 18.654 12.659 29.408 18.85 10.756 6.181 23.269 11.225 37.546 15.126 14.275 3.905 28.169 5.472 41.684 4.716h32.834c6.659-.575 11.704-2.669 15.133-6.283l1.136-1.431c.764-1.136 1.479-2.901 2.139-5.276.668-2.379 1-5 1-7.851-.195-8.183.428-15.558 1.852-22.124 1.423-6.564 3.045-11.513 4.859-14.846 1.813-3.33 3.859-6.14 6.136-8.418 2.282-2.283 3.908-3.666 4.862-4.142.948-.479 1.705-.804 2.276-.999 4.568-1.522 9.944-.048 16.136 4.429 6.187 4.473 11.99 9.996 17.418 16.56 5.425 6.57 11.943 13.941 19.555 22.124 7.617 8.186 14.277 14.271 19.985 18.274l5.708 3.426c3.812 2.286 8.761 4.38 14.853 6.283 6.081 1.902 11.409 2.378 15.984 1.427l73.087-1.14c7.229 0 12.854-1.197 16.844-3.572 3.998-2.379 6.373-5 7.139-7.851.764-2.854.805-6.092.145-9.712-.677-3.611-1.344-6.136-2.008-7.563z"/>
</symbol><symbol id="icon-wifi" viewBox="0 0 54.908 54.908">
    <path d="M54.615 19.123C47.372 11.879 37.725 7.89 27.454 7.89S7.537 11.878.293 19.123a.999.999 0 1 0 1.414 1.414C8.573 13.67 17.717 9.889 27.454 9.889s18.881 3.781 25.747 10.647a.997.997 0 0 0 1.414 0 .998.998 0 0 0 0-1.413z"/>
    <path d="M6.171 25a.999.999 0 1 0 1.414 1.414c10.955-10.956 28.781-10.956 39.737 0A.999.999 0 1 0 48.736 25C37.002 13.266 17.907 13.264 6.171 25z"/>
    <path d="M27.454 24.508c-5.825 0-11.295 2.263-15.404 6.371a.999.999 0 1 0 1.414 1.414c3.731-3.73 8.699-5.785 13.99-5.785s10.259 2.055 13.99 5.785a.997.997 0 0 0 1.414 0 .999.999 0 0 0 0-1.414c-4.108-4.108-9.579-6.371-15.404-6.371z"/>
    <path d="M27.454 33.916c-3.612 0-6.551 2.939-6.551 6.552s2.939 6.552 6.551 6.552c3.613 0 6.552-2.939 6.552-6.552s-2.939-6.552-6.552-6.552z"/>
</symbol></svg>