<?xml version="1.0" encoding="utf-8"?>
<!-- Generator: Adobe Illustrator 22.0.1, SVG Export Plug-In . SVG Version: 6.00 Build 0)  -->
<svg version="1.1" id="Capa_1" xmlns="http://www.w3.org/2000/svg" xmlns:xlink="http://www.w3.org/1999/xlink" x="0px" y="0px"
	 viewBox="0 0 13 13" style="enable-background:new 0 0 13 13;" xml:space="preserve">
<style type="text/css">
	.st0{fill:#5A9F4E;}
</style>
<g>
	<path class="st0" d="M6.5,7.3L6.5,7.3c0.1,0,0.2,0,0.3-0.1l0,0c0,0,0,0,0,0L7.1,7l5.8-4.8c0,0,0,0-0.1,0H0.2c0,0,0,0,0,0l6,5
		C6.3,7.3,6.4,7.3,6.5,7.3z M0.2,2.9V10l4.3-3.5L0.2,2.9z M8.5,6.5l4.3,3.5V3L8.5,6.5z M7.2,7.7C7,7.8,6.8,7.9,6.5,7.9
		c-0.2,0-0.5-0.1-0.6-0.2l-1-0.8l-4.7,3.8v0c0,0,0,0.1,0.1,0.1h12.6c0,0,0.1,0,0.1-0.1v0L8.1,6.9L7.2,7.7z"/>
</g>
</svg>
